<svg width="76" height="76" viewBox="0 0 76 76" fill="none" xmlns="http://www.w3.org/2000/svg">
<path d="M74.6721 60.7524V74.6743H21.5158L19.6869 71.9311C19.5946 71.7927 19.5304 71.6376 19.4981 71.4744C19.4658 71.3113 19.466 71.1433 19.4986 70.9802C19.5312 70.8172 19.5956 70.6621 19.6882 70.5239C19.7808 70.3858 19.8997 70.2672 20.0381 70.175L22.7814 68.3462V63.2837L18.7694 53.2552L17.7189 50.6274L16.2951 47.7798L14.096 43.3833C12.3174 39.8242 11.3913 35.9002 11.3908 31.9215V23.4956L5.14489 21.711C4.36948 21.4897 3.67631 21.0451 3.15169 20.4327C2.62706 19.8203 2.29415 19.0671 2.1944 18.2669L1.87958 15.7483L1.26575 10.8393H10.1251L11.7625 7.56449C12.7752 5.53949 14.3683 3.86216 16.3385 2.7466C18.3087 1.63104 20.5667 1.12783 22.8241 1.30122L27.6477 1.673C28.8916 1.7686 30.0975 2.14588 31.1741 2.77627C32.2507 3.40666 33.1698 4.27367 33.8619 5.31168L39.2345 13.3705L42.666 18.9789C46.2538 24.839 50.8982 29.9823 56.3632 34.1474L64.6056 40.4265C67.7348 42.811 70.2713 45.8859 72.0173 49.4115C73.7634 52.9371 74.6719 56.8182 74.6721 60.7524V60.7524Z" fill="#F3AF3E"/>
<path d="M24.8586 9.99396L23.7565 17.1572C23.4733 18.9982 23.7817 20.8816 24.6373 22.5361C25.4929 24.1906 26.8515 25.5309 28.5175 26.3639C29.7391 26.9747 31.0862 27.2927 32.452 27.2927H34.172V10.3561C34.172 9.84172 34.0522 9.33442 33.8222 8.87435C33.5471 8.3239 33.1241 7.86095 32.6006 7.53737C32.0772 7.2138 31.474 7.04239 30.8586 7.04236H28.2985C27.4671 7.04238 26.6632 7.34002 26.0322 7.88142C25.4012 8.42281 24.9849 9.1722 24.8586 9.99396V9.99396Z" fill="#C38325"/>
<path d="M60.6315 67.6169C60.5292 67.8347 60.367 68.0189 60.1639 68.1481C59.9608 68.2772 59.7252 68.3459 59.4845 68.3462H49.0922C48.1564 68.3474 47.2594 68.7196 46.5977 69.3813C45.9361 70.0429 45.5638 70.94 45.5627 71.8757V74.6743H43.0314V71.8757C43.0329 70.2688 43.6719 68.7281 44.8082 67.5918C45.9445 66.4555 47.4852 65.8165 49.0922 65.815H56.7872C53.6209 61.8653 51.894 56.9552 51.8908 51.8931C51.8908 51.5574 52.0241 51.2355 52.2615 50.9981C52.4988 50.7608 52.8207 50.6274 53.1564 50.6274C53.4921 50.6274 53.814 50.7608 54.0513 50.9981C54.2887 51.2355 54.422 51.5574 54.422 51.8931C54.4249 56.5029 56.0407 60.9664 58.9894 64.5098L60.4575 66.2706C60.611 66.4555 60.7089 66.6802 60.7397 66.9185C60.7705 67.1568 60.733 67.399 60.6315 67.6169Z" fill="#C38325"/>
<path d="M68.3439 32.9087C68.3439 33.3342 68.3313 33.7551 68.3044 34.1743C68.2775 34.5999 68.2374 35.0217 68.1842 35.4399C67.9102 37.6582 67.2664 39.8148 66.2794 41.8203C64.9927 44.442 63.1551 46.7549 60.8921 48.6009C58.6291 50.4469 55.9942 51.7825 53.1675 52.5164C53.1641 52.5182 53.1603 52.5192 53.1564 52.5195C50.3711 53.2388 47.4645 53.3562 44.6302 52.8641C41.7959 52.372 39.099 51.2817 36.7191 49.6656C34.3392 48.0496 32.331 45.945 30.8282 43.4921C29.3254 41.0391 28.3625 38.2941 28.0037 35.4399C27.9499 35.0223 27.9098 34.6004 27.8835 34.1743C27.8566 33.7551 27.8439 33.3342 27.8439 32.9087C27.8443 28.5407 29.2569 24.2899 31.8709 20.7904C34.485 17.291 38.1605 14.7306 42.3489 13.4911C46.5374 12.2517 51.0143 12.3996 55.1118 13.913C59.2093 15.4263 62.7076 18.2238 65.085 21.8882C65.376 22.3359 65.6497 22.7958 65.906 23.2678C67.511 26.2274 68.3492 29.5419 68.3439 32.9087Z" fill="#C0F5F9"/>
<path d="M6.32825 10.8392V11.9182C6.32839 12.6944 6.06908 13.4485 5.59154 14.0605C5.11399 14.6724 4.4456 15.1073 3.69259 15.2958L1.87958 15.7483L1.26575 10.8392H6.32825Z" fill="#C38325"/>
<path d="M17.7189 12.1052C19.1169 12.1052 20.2501 10.9719 20.2501 9.57398C20.2501 8.176 19.1169 7.04272 17.7189 7.04272C16.3209 7.04272 15.1876 8.176 15.1876 9.57398C15.1876 10.9719 16.3209 12.1052 17.7189 12.1052Z" fill="#C38325"/>
<path d="M44.297 59.4868H51.8908V74.6743H44.297V59.4868Z" fill="#428DC5"/>
<path d="M68.3044 34.1742C68.2775 34.5998 68.2374 35.0216 68.1842 35.4398C67.9102 37.6581 67.2664 39.8147 66.2794 41.8202C64.9927 44.4419 63.1551 46.7548 60.8921 48.6008C58.6291 50.4468 55.9942 51.7824 53.1675 52.5163C53.1641 52.5181 53.1603 52.5191 53.1564 52.5194C50.3711 53.2387 47.4645 53.3561 44.6302 52.864C41.7959 52.3719 39.099 51.2816 36.7191 49.6655C34.3392 48.0495 32.331 45.9449 30.8282 43.492C29.3254 41.039 28.3625 38.294 28.0037 35.4398C27.9499 35.0222 27.9098 34.6003 27.8835 34.1742H68.3044Z" fill="#EEB58E"/>
<path d="M40.5002 37.9712H43.0314V40.5024H40.5002V37.9712Z" fill="#F55648"/>
<path d="M40.5002 44.2993H43.0314V46.8306H40.5002V44.2993Z" fill="#B94137"/>
<path d="M51.8908 44.2993H54.422V46.8306H51.8908V44.2993Z" fill="#F55648"/>
<path d="M56.9533 44.2993H59.4845V46.8306H56.9533V44.2993Z" fill="#F55648"/>
<path d="M54.422 40.5024H56.9533V43.0337H54.422V40.5024Z" fill="#B94137"/>
<path d="M30.005 69.2416L28.2062 71.0388L30.1632 73.9719C30.3018 74.1799 30.3755 74.4244 30.3752 74.6743H27.5876L26.1005 72.4421C25.7776 71.9549 25.6327 71.3712 25.6904 70.7895C25.748 70.2078 26.0046 69.6639 26.4169 69.2496L27.8439 67.8226V61.3204L18.7694 53.2552L17.7189 50.6274L16.2951 47.7798C16.4394 47.834 16.5724 47.9144 16.6874 48.0171L29.9496 59.8064C30.0834 59.925 30.1905 60.0707 30.2638 60.2338C30.3372 60.3969 30.3751 60.5736 30.3752 60.7525V68.3462C30.3753 68.6819 30.2421 69.004 30.005 69.2416Z" fill="#C38325"/>
<path d="M37.9689 58.2212V74.6743H35.4376V58.604L33.1184 55.1267C32.9321 54.8473 32.8644 54.5053 32.9303 54.1759C32.9962 53.8466 33.1902 53.5569 33.4696 53.3706C33.749 53.1843 34.091 53.1167 34.4204 53.1826C34.7497 53.2484 35.0394 53.4424 35.2257 53.7219L37.7569 57.5187C37.8948 57.7271 37.9685 57.9713 37.9689 58.2212Z" fill="#C38325"/>
<path d="M68.3044 34.1742C68.2775 34.5998 68.2374 35.0216 68.1842 35.4398H28.0037L27.8835 34.1742H68.3044Z" fill="#BD9070"/>
<path d="M54.3195 18.9868C50.1731 24.7919 47.618 31.581 46.9082 38.6794L46.8403 39.3572C46.8045 39.7151 46.8487 40.0766 46.9697 40.4154C47.0906 40.7541 47.2853 41.0618 47.5397 41.3162C47.7652 41.5417 48.033 41.7207 48.3277 41.8427C48.6223 41.9648 48.9381 42.0276 49.2571 42.0276C49.5761 42.0276 49.8919 41.9648 50.1866 41.8427C50.4812 41.7207 50.749 41.5417 50.9745 41.3162L51.077 41.2138C51.3026 40.9883 51.4816 40.7206 51.6038 40.4259C51.7259 40.1312 51.7888 39.8154 51.7889 39.4964V34.1442C51.7889 30.8019 52.1988 27.4722 53.0094 24.2296L54.3195 18.9868Z" fill="#744630"/>
<path d="M65.906 23.2677L65.6656 24.2296C64.8542 27.472 64.444 30.8018 64.4442 34.1442V39.4962C64.4439 40.1403 64.1885 40.758 63.7339 41.2143L63.6311 41.3155C63.2769 41.6698 62.8218 41.9058 62.3282 41.9913C61.8346 42.0767 61.3267 42.0075 60.874 41.793C60.4213 41.5785 60.046 41.2293 59.7995 40.7932C59.553 40.3571 59.4474 39.8554 59.4972 39.357L59.5637 38.6799C60.1567 32.7468 62.0412 27.0154 65.085 21.8882C65.3761 22.3359 65.6497 22.7957 65.906 23.2677V23.2677Z" fill="#744630"/>
<path d="M39.132 18.9868C34.9856 24.7919 32.4305 31.581 31.7207 38.6794L31.6528 39.3572C31.617 39.7151 31.6612 40.0766 31.7822 40.4154C31.9031 40.7541 32.0978 41.0618 32.3522 41.3162C32.5777 41.5417 32.8455 41.7207 33.1401 41.8427C33.4348 41.9648 33.7506 42.0276 34.0696 42.0276C34.3885 42.0276 34.7044 41.9648 34.999 41.8427C35.2937 41.7207 35.5615 41.5417 35.787 41.3162L35.8895 41.2138C36.1151 40.9883 36.2941 40.7206 36.4163 40.4259C36.5384 40.1312 36.6013 39.8154 36.6014 39.4964V34.1442C36.6014 30.8019 37.0113 27.4722 37.8219 24.2296L39.132 18.9868Z" fill="#744630"/>
<path d="M69.6095 32.9086C69.6095 21.0448 59.9576 11.393 48.0939 11.393C36.2302 11.393 26.5783 21.0448 26.5783 32.9086C26.5783 43.0291 33.6025 51.5383 43.0314 53.8212V59.4868H53.1564V53.8212C62.5853 51.5383 69.6095 43.0291 69.6095 32.9086ZM48.0939 51.893C44.3391 51.893 40.6687 50.7796 37.5467 48.6936C34.4248 46.6076 31.9915 43.6426 30.5546 40.1737C29.1177 36.7047 28.7418 32.8876 29.4743 29.205C30.2068 25.5224 32.0149 22.1397 34.6699 19.4847C37.3249 16.8296 40.7076 15.0216 44.3902 14.289C48.0728 13.5565 51.89 13.9325 55.3589 15.3694C58.8279 16.8062 61.7928 19.2395 63.8789 22.3615C65.9649 25.4835 67.0783 29.1539 67.0783 32.9086C67.0726 37.9419 65.0706 42.7673 61.5116 46.3263C57.9526 49.8854 53.1271 51.8873 48.0939 51.893V51.893Z" fill="#428DC5"/>
<path d="M44.297 59.4868H51.8908V62.0181H44.297V59.4868Z" fill="#3775A4"/>
<path d="M17.7189 12.1052C19.1169 12.1052 20.2501 10.9719 20.2501 9.57398C20.2501 8.176 19.1169 7.04272 17.7189 7.04272C16.3209 7.04272 15.1876 8.176 15.1876 9.57398C15.1876 10.9719 16.3209 12.1052 17.7189 12.1052Z" fill="black"/>
<path d="M40.5002 37.9712H43.0314V40.5024H40.5002V37.9712Z" fill="black"/>
<path d="M40.5002 44.2993H43.0314V46.8306H40.5002V44.2993Z" fill="black"/>
<path d="M51.8908 44.2993H54.422V46.8306H51.8908V44.2993Z" fill="black"/>
<path d="M56.9533 44.2993H59.4845V46.8306H56.9533V44.2993Z" fill="black"/>
<path d="M54.422 40.5024H56.9533V43.0337H54.422V40.5024Z" fill="black"/>
<path d="M0.93858 18.4238C1.06798 19.4707 1.50297 20.4563 2.18922 21.2574C2.87547 22.0585 3.78255 22.6397 4.79716 22.9283L10.1251 24.4506V31.9209C10.1301 36.0956 11.1019 40.2123 12.9644 43.9485L16.5632 51.1467L21.5158 63.5274V67.6689L19.3356 69.1223C19.059 69.3067 18.8214 69.5437 18.6364 69.8199C18.4515 70.0961 18.3227 70.406 18.2575 70.732C18.1923 71.0579 18.192 71.3935 18.2565 71.7196C18.321 72.0457 18.4491 72.3559 18.6335 72.6325L20.4628 75.3764C20.5783 75.5497 20.7349 75.6918 20.9186 75.7901C21.1023 75.8884 21.3074 75.9399 21.5158 75.9399H74.6721C75.0077 75.9399 75.3296 75.8065 75.567 75.5692C75.8043 75.3318 75.9377 75.0099 75.9377 74.6743V60.7524C75.935 57.1665 75.2143 53.6174 73.8181 50.3145C72.4219 47.0116 70.3785 44.0216 67.8084 41.521C68.7752 39.318 69.3628 36.9675 69.5463 34.5686C69.6147 34.3613 69.628 34.1398 69.585 33.9258C69.6008 33.5887 69.6097 33.2497 69.6097 32.9086C69.6138 29.5025 68.8043 26.1447 67.2485 23.1147L68.2038 19.2936C68.2751 19.0078 68.2445 18.706 68.1172 18.4403C67.9899 18.1745 67.7739 17.9616 67.5064 17.838C67.239 17.7145 66.9368 17.6882 66.6519 17.7636C66.3671 17.839 66.1175 18.0114 65.9462 18.2511C65.6236 18.7028 65.3107 19.1605 65.0076 19.6241C62.1701 16.0059 58.2473 13.3929 53.8152 12.1687C49.383 10.9446 44.6752 11.1738 40.3829 12.8228L40.3139 12.7102C40.3056 12.6962 40.2967 12.6823 40.2875 12.6687L34.9156 4.60999C34.1203 3.40915 33.0606 2.40638 31.8178 1.67857C30.5749 0.950762 29.1819 0.517248 27.7455 0.411272L22.9216 0.0396523C20.4122 -0.159808 17.9006 0.396399 15.7101 1.63666C13.5196 2.87693 11.7504 4.74447 10.6304 6.99886L9.34297 9.57361H1.26574C1.08617 9.5736 0.908654 9.61179 0.74498 9.68566C0.581307 9.75954 0.435227 9.86739 0.316446 10.0021C0.197664 10.1367 0.1089 10.2951 0.0560521 10.4668C0.00320362 10.6384 -0.0125197 10.8193 0.00992674 10.9974L0.93858 18.4238ZM27.8439 67.822L26.4169 69.2488C26.0043 69.6633 25.7475 70.2075 25.6898 70.7895C25.6322 71.3714 25.7772 71.9555 26.1005 72.4428L26.7447 73.4086H22.193L20.7396 71.2284L23.4835 69.3991C23.6568 69.2836 23.799 69.127 23.8973 68.9433C23.9956 68.7596 24.047 68.5545 24.047 68.3461V63.2836C24.047 63.1226 24.0163 62.9631 23.9565 62.8136L20.8852 55.1351L27.8439 61.3208V67.822ZM50.6252 73.4086H45.5627V60.7524H50.6252V73.4086ZM51.8908 58.2211H44.297V54.0887C46.8085 54.5361 49.3793 54.5361 51.8908 54.0887V58.2211ZM66.2792 27.4571C66.8102 29.2255 67.0794 31.0622 67.0783 32.9086H65.7298C65.7871 31.0809 65.9706 29.2594 66.2792 27.4571V27.4571ZM65.7097 39.4963V35.4399H66.9085C66.6941 37.0427 66.2741 38.6113 65.6587 40.1068C65.6927 39.9051 65.7099 39.7009 65.7103 39.4963H65.7097ZM66.5912 43.8852C70.9588 48.4146 73.4016 54.4602 73.4064 60.7524V73.4086H53.1564V68.3461H59.4845C59.7251 68.3462 59.9607 68.2776 60.1637 68.1485C60.3667 68.0194 60.5287 67.8352 60.6308 67.6173C60.7328 67.3995 60.7707 67.157 60.7399 66.9184C60.7091 66.6799 60.6109 66.455 60.4569 66.2702L58.99 64.5102C56.3743 61.3838 54.8003 57.5187 54.4877 53.4545C59.5621 51.8622 63.8715 48.4552 66.5918 43.8852H66.5912ZM53.1564 65.8149V60.7524C53.3356 60.7523 53.5126 60.714 53.6758 60.6401C54.4725 62.4985 55.5193 64.2396 56.787 65.8149H53.1564ZM64.628 42.1088C64.6858 42.051 64.7408 41.9909 64.7942 41.93C63.1894 44.903 60.82 47.3937 57.9307 49.1448C55.0415 50.896 51.7371 51.844 48.359 51.8911C44.9808 51.9382 41.6513 51.0826 38.7144 49.4126C35.7775 47.7427 33.3396 45.3189 31.6526 42.3918C32.3585 43.0032 33.2698 43.3244 34.203 43.2909C35.1363 43.2573 36.0221 42.8713 36.6822 42.2108L36.7843 42.1088C37.1284 41.7665 37.4013 41.3594 37.5871 40.911C37.7729 40.4625 37.8678 39.9817 37.8665 39.4963V35.4399H46.0798C45.8982 36.4704 45.7546 37.5082 45.6489 38.5533L45.581 39.2312C45.5051 39.9895 45.6656 40.7528 46.0405 41.4164C46.4154 42.0799 46.9864 42.6113 47.6751 42.9376C48.3639 43.264 49.1367 43.3693 49.8876 43.2392C50.6386 43.1091 51.3309 42.75 51.8697 42.2109L51.9718 42.1089C52.316 41.7667 52.5888 41.3595 52.7746 40.9111C52.9604 40.4627 53.0554 39.9819 53.0541 39.4965V35.4399H58.7361C58.5545 36.4704 58.4108 37.5082 58.3051 38.5533L58.2373 39.2312C58.1614 39.9895 58.3219 40.7528 58.6968 41.4164C59.0717 42.0799 59.6426 42.6113 60.3314 42.9376C61.0201 43.264 61.7929 43.3693 62.5439 43.2392C63.2948 43.1091 63.9872 42.75 64.526 42.2109L64.628 42.1088ZM32.9121 39.4826L32.98 38.8047C33.3736 34.8812 34.3504 31.0384 35.8781 27.4031C35.517 29.6321 35.3355 31.8866 35.3353 34.1446V39.4968C35.3357 39.6497 35.3057 39.8011 35.2472 39.9424C35.1886 40.0836 35.1025 40.2118 34.994 40.3195L34.892 40.4217C34.7223 40.5913 34.5044 40.7043 34.268 40.7452C34.0316 40.7861 33.7883 40.7529 33.5715 40.6502C33.3547 40.5475 33.175 40.3802 33.0569 40.1713C32.9389 39.9625 32.8883 39.7223 32.9121 39.4835V39.4826ZM48.0996 39.4826L48.1675 38.8047C48.5611 34.8812 49.5379 31.0384 51.0656 27.4031C50.7045 29.6321 50.523 31.8866 50.5228 34.1446V39.4968C50.5232 39.6497 50.4932 39.8011 50.4347 39.9424C50.3761 40.0836 50.2901 40.2118 50.1816 40.3195L50.0795 40.4217C49.9098 40.5913 49.6919 40.7043 49.4555 40.7452C49.2191 40.7861 48.9758 40.7529 48.759 40.6502C48.5422 40.5475 48.3625 40.3802 48.2444 40.1713C48.1264 39.9625 48.0758 39.7223 48.0996 39.4835V39.4826ZM63.1791 34.1435V39.4957C63.1795 39.6486 63.1495 39.8 63.0909 39.9413C63.0324 40.0825 62.9463 40.2107 62.8378 40.3184L62.7358 40.4206C62.5661 40.5902 62.3481 40.7032 62.1117 40.7441C61.8753 40.785 61.6321 40.7518 61.4153 40.6491C61.1985 40.5463 61.0187 40.3791 60.9007 40.1702C60.7826 39.9614 60.7321 39.7211 60.7559 39.4824L60.8237 38.8045C61.2174 34.8811 62.1942 31.0383 63.7219 27.4031C63.3608 29.632 63.1792 31.8862 63.1791 34.1442V34.1435ZM38.0553 13.8834C37.1447 14.3659 36.27 14.913 35.4376 15.5206V10.3561C35.4376 10.2116 35.4289 10.0672 35.415 9.92324L38.0553 13.8834ZM48.0939 13.9242C51.1301 13.9247 54.1219 14.6538 56.8179 16.0504C59.5139 17.4469 61.8354 19.47 63.5874 21.9497C61.6412 25.3828 60.1857 29.0716 59.2631 32.9086H53.0735C53.1619 30.0845 53.5518 27.2779 54.2366 24.5366L55.5473 19.2936C55.6187 19.0078 55.5881 18.706 55.4608 18.4403C55.3335 18.1745 55.1175 17.9616 54.85 17.838C54.5825 17.7145 54.2803 17.6882 53.9955 17.7636C53.7107 17.839 53.4611 18.0114 53.2898 18.2511C50.1418 22.6626 47.8728 27.639 46.6068 32.9086H37.886C37.9744 30.0845 38.3643 27.2779 39.0491 24.5366L40.3598 19.2936C40.4312 19.0078 40.4006 18.706 40.2733 18.4403C40.146 18.1745 39.93 17.9616 39.6625 17.838C39.395 17.7145 39.0928 17.6882 38.808 17.7636C38.5232 17.839 38.2736 18.0114 38.1023 18.2511C34.9543 22.6626 32.6853 27.639 31.4193 32.9086H29.1095C29.1152 27.8754 31.1172 23.0499 34.6762 19.4909C38.2352 15.9319 43.0607 13.9299 48.0939 13.9242V13.9242ZM30.3785 39.7317C29.8442 38.3494 29.4751 36.9088 29.2786 35.4399H30.8923C30.7107 36.4704 30.567 37.5082 30.4614 38.5533L30.3935 39.2312C30.3773 39.3975 30.3723 39.5647 30.3785 39.7317V39.7317ZM28.2017 24.7137C27.027 23.9145 26.1031 22.7984 25.5377 21.4949C24.9722 20.1914 24.7884 18.7542 25.0075 17.3504L26.1095 10.1873C26.1874 9.66315 26.4516 9.18464 26.8536 8.83948C27.2557 8.49431 27.7687 8.30562 28.2986 8.30799H30.8586C31.2392 8.30672 31.6125 8.41211 31.9363 8.61221C32.26 8.8123 32.5212 9.09911 32.6903 9.44009C32.8321 9.72465 32.906 10.0382 32.9064 10.3561V17.6831C30.8899 19.6935 29.291 22.0829 28.2017 24.7137V24.7137ZM7.58596 12.1049H10.1251C10.3602 12.1049 10.5905 12.0394 10.7905 11.9158C10.9904 11.7923 11.152 11.6155 11.2571 11.4053L12.8945 8.13048C13.7904 6.32706 15.2056 4.83309 16.9579 3.84089C18.7102 2.84868 20.7194 2.40368 22.7268 2.56315L27.5509 2.93493C28.6043 3.01258 29.6259 3.33047 30.5373 3.86422C31.4487 4.39796 32.2258 5.13337 32.8089 6.01404L33.0035 6.30593C32.3424 5.95717 31.6061 5.77549 30.8586 5.77674H28.2986C27.1634 5.77145 26.0644 6.17541 25.2028 6.91459C24.3413 7.65377 23.775 8.67865 23.6077 9.80143L22.5056 16.9649C22.1948 18.9565 22.4914 20.9956 23.3566 22.8162C24.2218 24.6368 25.6156 26.1545 27.3562 27.1712C26.839 29.0398 26.5773 30.9698 26.5783 32.9086C26.5783 33.2497 26.5871 33.5889 26.6029 33.9258C26.5599 34.1398 26.5733 34.3613 26.6417 34.5686C26.9814 38.8715 28.6044 42.9734 31.3007 46.3438C33.997 49.7142 37.6426 52.198 41.7659 53.4739V59.4867C41.7659 59.8224 41.8993 60.1443 42.1366 60.3817C42.374 60.619 42.6959 60.7524 43.0316 60.7524V73.4086H37.9689V58.2211C37.9689 57.9712 37.8949 57.7269 37.7563 57.519L35.225 53.7221C35.1332 53.5829 35.0149 53.4632 34.8766 53.3698C34.7384 53.2765 34.5832 53.2114 34.4197 53.1782C34.2563 53.1451 34.0879 53.1446 33.9242 53.1768C33.7606 53.2089 33.6049 53.2731 33.4662 53.3656C33.3274 53.4581 33.2083 53.5772 33.1157 53.7159C33.0231 53.8546 32.9588 54.0102 32.9266 54.1738C32.8943 54.3374 32.8947 54.5058 32.9277 54.6693C32.9608 54.8328 33.0258 54.9881 33.119 55.1263L35.4376 58.6043V73.4086H29.7868L28.2078 71.0386L30.0053 69.2411C30.2423 69.0036 30.3754 68.6817 30.3751 68.3461V60.7524C30.3751 60.5736 30.3372 60.3969 30.264 60.2339C30.1908 60.0709 30.0838 59.9252 29.9502 59.8065L18.7418 49.8433L15.2284 42.8166C13.5413 39.432 12.6609 35.7027 12.6564 31.9209V23.4955C12.6564 23.2205 12.5669 22.953 12.4013 22.7335C12.2357 22.5139 12.0032 22.3542 11.7388 22.2786L5.49214 20.4942C4.95518 20.3415 4.47514 20.0339 4.11201 19.6098C3.74887 19.1858 3.51874 18.6642 3.45037 18.1101L3.27493 16.7049L4.00013 16.524C4.99589 16.2753 5.88394 15.7099 6.53063 14.9129C7.17733 14.1159 7.54769 13.1305 7.58596 12.1049V12.1049ZM5.05471 12.1049C5.01651 12.5655 4.83499 13.0025 4.53563 13.3547C4.23627 13.7068 3.83412 13.9563 3.38567 14.0682L2.95852 14.175L2.69938 12.1049H5.05471Z" fill="black"/>
</svg>
