<svg width="76" height="76" viewBox="0 0 76 76" fill="none" xmlns="http://www.w3.org/2000/svg">
<path d="M74.6719 18.9844V56.9531H56.9531V74.6719H18.9844V56.9531H1.26562V18.9844H18.9844V1.26562H56.9531V18.9844H74.6719Z" fill="#6B9777"/>
<path d="M72.1406 18.9844V56.9531H54.4219V74.6719H18.9844V56.9531H1.26562V18.9844H18.9844V1.26562H54.4219V18.9844H72.1406Z" fill="#85BC94"/>
<path d="M20.25 50.625H18.9844C17.8999 50.625 16.8465 50.2625 15.9917 49.5951C15.1368 48.9277 14.5296 47.9937 14.2666 46.9416L12.6562 40.5L11.8178 41.3385C10.899 42.2572 10.2068 43.3772 9.79589 44.6098C9.38502 45.8425 9.26679 47.1538 9.45056 48.4401C9.88202 51.4602 11.4955 54.1852 13.9361 56.0158C14.7482 56.6245 15.7359 56.9534 16.7508 56.9531H20.25V50.625Z" fill="#744630"/>
<path d="M53.1562 72.1406L51.8906 74.6719H18.9844V55.9565C18.9843 53.2637 19.418 50.5885 20.269 48.0337L20.9587 45.9659C22.1551 42.3731 24.1722 39.1084 26.8502 36.431L26.9436 36.3377C29.2065 34.0786 31.0167 31.4076 32.2766 28.4687C32.7734 27.3106 33.2685 26.1526 33.6292 25.3125C33.9567 24.5484 34.1719 24.0469 34.1719 24.0469H30.53C29.4014 24.0457 28.3054 23.6678 27.4159 22.9732C26.5263 22.2785 25.8941 21.3068 25.6194 20.2121L24.9961 17.7188L24.8331 17.067C24.7399 16.6938 24.7329 16.3043 24.8126 15.9281C24.8924 15.5518 25.0569 15.1987 25.2936 14.8955C25.5303 14.5923 25.833 14.3471 26.1786 14.1784C26.5243 14.0097 26.9038 13.922 27.2885 13.9219H31.6406C32.4567 11.4714 34.1228 9.39388 36.3377 8.06522L36.8914 7.73457C38.3148 6.88092 39.9305 6.39993 41.5891 6.33605C43.2476 6.27217 44.8955 6.62748 46.3804 7.36912L46.4358 7.3976C48.0749 8.21721 49.4534 9.47703 50.4168 11.0359C51.3802 12.5948 51.8906 14.3912 51.8906 16.2238V70.875L53.1562 72.1406Z" fill="#F3AF3E"/>
<path d="M25.9453 74.6719C24.4353 74.6702 22.9877 74.0696 21.92 73.0019C20.8523 71.9342 20.2517 70.4865 20.25 68.9766V68.0273C20.2521 67.1436 20.4589 66.2723 20.8542 65.4818C21.2494 64.6913 21.8224 64.0031 22.5281 63.4711C23.3908 62.821 24.0911 61.9798 24.5742 61.0137C25.0573 60.0475 25.31 58.9825 25.3125 57.9023V56.9531C25.3125 56.6175 25.4458 56.2955 25.6832 56.0582C25.9205 55.8208 26.2425 55.6875 26.5781 55.6875C26.9138 55.6875 27.2357 55.8208 27.4731 56.0582C27.7104 56.2955 27.8438 56.6175 27.8438 56.9531V57.9023C27.8402 59.3753 27.4956 60.8275 26.8369 62.145C26.1781 63.4625 25.2232 64.6095 24.0469 65.4961C23.6548 65.7917 23.3365 66.174 23.1169 66.6132C22.8974 67.0523 22.7825 67.5364 22.7812 68.0273V68.9766C22.7812 69.8157 23.1146 70.6205 23.708 71.2139C24.3014 71.8073 25.1062 72.1406 25.9453 72.1406C26.7845 72.1406 27.5893 71.8073 28.1826 71.2139C28.776 70.6205 29.1094 69.8157 29.1094 68.9766V68.3438C29.1105 67.3371 29.511 66.372 30.2227 65.6602C30.9345 64.9485 31.8996 64.548 32.9062 64.5469C33.2419 64.5469 33.5638 64.6802 33.8012 64.9176C34.0385 65.1549 34.1719 65.4768 34.1719 65.8125C34.1719 66.1482 34.0385 66.4701 33.8012 66.7074C33.5638 66.9448 33.2419 67.0781 32.9062 67.0781C32.5707 67.0785 32.249 67.212 32.0117 67.4492C31.7745 67.6865 31.641 68.0082 31.6406 68.3438V68.9766C31.639 70.4865 31.0384 71.9342 29.9707 73.0019C28.9029 74.0696 27.4553 74.6702 25.9453 74.6719V74.6719Z" fill="#CD761F"/>
<path d="M53.1562 72.1406L51.8906 74.6719H38.3532C37.3055 74.6719 36.268 74.4656 35.3 74.0647C34.332 73.6637 33.4525 73.0761 32.7117 72.3352C31.9708 71.5944 31.3831 70.7148 30.9822 69.7469C30.5813 68.7789 30.375 67.7414 30.375 66.6937C30.3746 65.2693 30.5733 63.8518 30.9651 62.4823L31.1534 61.8242C32.279 57.8812 34.862 54.5138 38.3785 52.4048C38.9372 52.0691 39.3888 51.5813 39.6805 50.9984L41.7656 46.8281H37.4799C37.0455 46.8281 36.6153 46.7426 36.214 46.5764C35.8126 46.4101 35.4479 46.1665 35.1407 45.8593C34.8335 45.5521 34.5899 45.1874 34.4236 44.7861C34.2574 44.3847 34.1719 43.9545 34.1719 43.5201V40.5H37.9688L38.2836 39.5555C38.5747 38.6812 39.0819 37.8945 39.758 37.2683C40.4342 36.6422 41.2575 36.197 42.1516 35.9738L44.2969 35.4375V31.6406L47.9941 34.4139C48.8931 35.0858 49.6219 35.9593 50.1219 36.9642C51.2848 39.2895 51.8903 41.8536 51.8906 44.4535V70.875L53.1562 72.1406Z" fill="#E08122"/>
<path d="M43.9267 46.4579L42.6611 47.7235C42.4234 47.9607 42.1014 48.0938 41.7656 48.0937H41.1328L41.7656 46.8281H37.4799C36.9991 46.8288 36.524 46.7244 36.0879 46.5222C35.6517 46.32 35.265 46.0248 34.955 45.6574C35.108 45.5943 35.272 45.562 35.4375 45.5625H41.242L42.1358 44.667C42.3733 44.4296 42.6954 44.2961 43.0313 44.2961C43.3671 44.2961 43.6892 44.4296 43.9267 44.667C44.1642 44.9045 44.2976 45.2266 44.2976 45.5625C44.2976 45.8983 44.1642 46.2204 43.9267 46.4579V46.4579Z" fill="#CD761F"/>
<path d="M46.8281 58.2188C46.4925 58.2188 46.1705 58.3521 45.9332 58.5894C45.6958 58.8268 45.5625 59.1487 45.5625 59.4844V68.6402C45.0802 68.4441 44.5644 68.3435 44.0437 68.3438H42.8651L43.0376 68.0843C43.593 67.2512 43.9119 66.2829 43.9602 65.2827C44.0085 64.2826 43.7844 63.2881 43.3118 62.4053C42.8392 61.5225 42.1359 60.7846 41.2768 60.2702C40.4178 59.7558 39.4352 59.4842 38.4339 59.4844H37.9688C37.6331 59.4844 37.3112 59.6177 37.0738 59.8551C36.8365 60.0924 36.7031 60.4143 36.7031 60.75C36.7031 61.0857 36.8365 61.4076 37.0738 61.6449C37.3112 61.8823 37.6331 62.0156 37.9688 62.0156H38.4339C38.9771 62.0154 39.5103 62.1626 39.9764 62.4417C40.4425 62.7207 40.8241 63.121 41.0806 63.6C41.337 64.0789 41.4586 64.6184 41.4324 65.1611C41.4063 65.7037 41.2333 66.229 40.9319 66.681L39.4464 68.907C39.3197 69.0977 39.247 69.3192 39.2362 69.548C39.2254 69.7767 39.2767 70.0041 39.3848 70.206C39.4929 70.4079 39.6537 70.5767 39.85 70.6945C40.0464 70.8123 40.271 70.8747 40.5 70.875H44.0437C44.4464 70.8756 44.8323 71.0358 45.117 71.3205C45.4017 71.6052 45.5619 71.9911 45.5625 72.3938V74.6719H48.0938V59.4844C48.0938 59.1487 47.9604 58.8268 47.7231 58.5894C47.4857 58.3521 47.1638 58.2188 46.8281 58.2188Z" fill="#CD761F"/>
<path d="M51.8906 16.4531V20.0443C51.8906 20.8412 51.6399 21.6179 51.1739 22.2644C50.7079 22.9109 50.0504 23.3943 49.2944 23.6463C48.515 23.9061 47.6725 23.9061 46.8931 23.6463C46.1371 23.3943 45.4796 22.9109 45.0136 22.2644C44.5476 21.6179 44.2969 20.8412 44.2969 20.0443V13.9219H49.3594L51.8906 16.4531Z" fill="#744630"/>
<path d="M40.1298 22.411L37.5986 24.9423C37.3609 25.1794 37.0389 25.3126 36.7031 25.3125H33.6292C33.9567 24.5484 34.1719 24.0468 34.1719 24.0468H30.53C29.3582 24.0479 28.2226 23.6407 27.3185 22.8951C27.4834 22.8201 27.6625 22.7812 27.8437 22.7812H36.1795L38.3389 20.6202C38.4565 20.5026 38.5961 20.4093 38.7498 20.3457C38.9034 20.282 39.0681 20.2493 39.2344 20.2493C39.4007 20.2493 39.5653 20.282 39.719 20.3457C39.8726 20.4093 40.0122 20.5026 40.1298 20.6202C40.2474 20.7378 40.3407 20.8774 40.4043 21.031C40.4679 21.1846 40.5007 21.3493 40.5007 21.5156C40.5007 21.6819 40.4679 21.8466 40.4043 22.0002C40.3407 22.1538 40.2474 22.2934 40.1298 22.411V22.411Z" fill="#D18D28"/>
<path d="M29.1094 13.9219V16.4531C29.1094 16.7888 28.976 17.1107 28.7387 17.3481C28.5013 17.5854 28.1794 17.7188 27.8438 17.7188H24.9961L24.8332 17.067C24.7399 16.6938 24.7329 16.3043 24.8127 15.928C24.8924 15.5518 25.0569 15.1987 25.2936 14.8955C25.5303 14.5923 25.833 14.347 26.1786 14.1783C26.5243 14.0096 26.9038 13.9219 27.2885 13.9219H29.1094Z" fill="#D18D28"/>
<path d="M33.0352 37.3736C32.8002 37.3734 32.57 37.3078 32.3702 37.1842C32.1704 37.0605 32.009 36.8837 31.904 36.6735C31.799 36.4633 31.7546 36.228 31.7758 35.9941C31.7969 35.7601 31.8828 35.5366 32.0238 35.3486C33.5332 33.3372 34.7079 31.0952 35.5023 28.7091C35.6085 28.3907 35.8368 28.1274 36.137 27.9773C36.4373 27.8272 36.7849 27.8025 37.1033 27.9086C37.4218 28.0148 37.6851 28.2431 37.8352 28.5434C37.9853 28.8436 38.01 29.1912 37.9039 29.5097C37.0233 32.1538 35.7214 34.6384 34.0486 36.8674C33.9307 37.0248 33.7777 37.1525 33.6018 37.2404C33.4259 37.3283 33.2318 37.3739 33.0352 37.3736V37.3736Z" fill="#D18D28"/>
<path d="M24.0469 55.6875C23.7112 55.6875 23.3893 55.5542 23.1519 55.3168C22.9146 55.0795 22.7812 54.7575 22.7812 54.4219C22.7903 50.0419 24.2105 45.7813 26.8313 42.2719C27.0327 42.0033 27.3325 41.8258 27.6648 41.7784C27.9971 41.7309 28.3346 41.8174 28.6031 42.0188C28.8717 42.2202 29.0492 42.52 29.0967 42.8523C29.1441 43.1846 29.0577 43.5221 28.8563 43.7906C26.5631 46.8614 25.3204 50.5894 25.3125 54.4219C25.3125 54.7575 25.1792 55.0795 24.9418 55.3168C24.7045 55.5542 24.3825 55.6875 24.0469 55.6875Z" fill="#D18D28"/>
<path d="M37.9688 16.4531C38.6677 16.4531 39.2344 15.8865 39.2344 15.1875C39.2344 14.4885 38.6677 13.9219 37.9688 13.9219C37.2698 13.9219 36.7031 14.4885 36.7031 15.1875C36.7031 15.8865 37.2698 16.4531 37.9688 16.4531Z" fill="#D18D28"/>
<path d="M43.0312 41.7656C43.7302 41.7656 44.2969 41.199 44.2969 40.5C44.2969 39.801 43.7302 39.2344 43.0312 39.2344C42.3323 39.2344 41.7656 39.801 41.7656 40.5C41.7656 41.199 42.3323 41.7656 43.0312 41.7656Z" fill="#CD761F"/>
<path d="M74.6719 17.7188H58.2188V1.26562C58.2188 0.92996 58.0854 0.608044 57.8481 0.370693C57.6107 0.133342 57.2888 0 56.9531 0H18.9844C18.6487 0 18.3268 0.133342 18.0894 0.370693C17.8521 0.608044 17.7188 0.92996 17.7188 1.26562V17.7188H1.26562C0.92996 17.7188 0.608044 17.8521 0.370693 18.0894C0.133342 18.3268 0 18.6487 0 18.9844V56.9531C0 57.2888 0.133342 57.6107 0.370693 57.8481C0.608044 58.0854 0.92996 58.2188 1.26562 58.2188H17.7188V74.6719C17.7188 75.0075 17.8521 75.3295 18.0894 75.5668C18.3268 75.8042 18.6487 75.9375 18.9844 75.9375H56.9531C57.2888 75.9375 57.6107 75.8042 57.8481 75.5668C58.0854 75.3295 58.2188 75.0075 58.2188 74.6719V58.2188H74.6719C75.0075 58.2188 75.3295 58.0854 75.5668 57.8481C75.8042 57.6107 75.9375 57.2888 75.9375 56.9531V18.9844C75.9375 18.6487 75.8042 18.3268 75.5668 18.0894C75.3295 17.8521 75.0075 17.7188 74.6719 17.7188ZM17.7214 55.6875H16.7505C16.0097 55.6876 15.2888 55.4474 14.6961 55.003C12.5245 53.373 11.0887 50.9477 10.704 48.2599C10.4474 46.4293 10.9101 44.5706 11.9951 43.0741L13.0393 47.2489C13.3306 48.4192 13.9613 49.4773 14.8521 50.2902C15.743 51.1032 16.8542 51.6346 18.0462 51.8179C17.8428 53.098 17.7342 54.3914 17.7214 55.6875ZM20.25 73.4062V68.9766C20.2482 69.7249 20.3948 70.4663 20.6812 71.1577C20.9676 71.8491 21.3882 72.4769 21.9187 73.0047C22.0607 73.1462 22.2099 73.2802 22.3658 73.4062H20.25ZM29.1094 68.3438V68.9766C29.1094 69.8157 28.776 70.6205 28.1826 71.2139C27.5893 71.8073 26.7845 72.1406 25.9453 72.1406C25.1062 72.1406 24.3014 71.8073 23.708 71.2139C23.1146 70.6205 22.7812 69.8157 22.7812 68.9766V68.0273C22.7825 67.5364 22.8974 67.0523 23.1169 66.6132C23.3365 66.174 23.6548 65.7917 24.0469 65.4961C25.2259 64.612 26.1828 63.4656 26.8419 62.1475C27.5009 60.8294 27.8439 59.376 27.8438 57.9023V56.9531C27.8438 56.6175 27.7104 56.2955 27.4731 56.0582C27.2357 55.8208 26.9138 55.6875 26.5781 55.6875C26.2425 55.6875 25.9205 55.8208 25.6832 56.0582C25.4458 56.2955 25.3125 56.6175 25.3125 56.9531V57.9023C25.3127 58.983 25.0612 60.0489 24.5779 61.0155C24.0946 61.9821 23.3928 62.8228 22.5281 63.4711C21.8224 64.0031 21.2495 64.6913 20.8543 65.4818C20.459 66.2723 20.2522 67.1436 20.25 68.0273V55.9564C20.2499 54.2543 20.4325 52.5571 20.7949 50.8939C20.7966 50.8859 20.7985 50.8781 20.8001 50.8699C20.98 50.0465 21.2035 49.2333 21.4696 48.4336L22.1597 46.3651C23.2977 42.9607 25.2096 39.8665 27.7452 37.3257L27.8387 37.2322C30.2167 34.8603 32.118 32.0546 33.4399 28.967L35.0061 25.3125H36.7031C36.8693 25.3125 37.0339 25.2798 37.1875 25.2162C37.341 25.1526 37.4806 25.0594 37.5981 24.9418L40.1293 22.4106C40.3667 22.1732 40.5 21.8513 40.5 21.5156C40.5 21.18 40.3667 20.858 40.1293 20.6207C39.892 20.3833 39.57 20.25 39.2344 20.25C38.8987 20.25 38.5768 20.3833 38.3394 20.6207L36.179 22.7812H30.53C29.6831 22.7822 28.8602 22.4994 28.1927 21.9781C27.5251 21.4568 27.0514 20.7269 26.8471 19.905L26.6169 18.9844H27.8438C28.5148 18.9836 29.1582 18.7166 29.6327 18.2421C30.1073 17.7676 30.3742 17.1242 30.375 16.4531V15.1875H31.6406C31.9063 15.1875 32.1652 15.104 32.3807 14.9486C32.5962 14.7933 32.7574 14.5741 32.8414 14.3221C33.5617 12.1593 35.0319 10.3254 36.9863 9.15205L37.5429 8.81982C38.7816 8.07722 40.1873 7.65823 41.6304 7.60144C43.0736 7.54466 44.5078 7.8519 45.8011 8.49487L45.8686 8.52952C47.6767 9.42753 49.1096 10.9352 49.9145 12.7866C49.7418 12.7015 49.5519 12.6569 49.3594 12.6562H44.2969C43.9612 12.6562 43.6393 12.7896 43.4019 13.0269C43.1646 13.2643 43.0312 13.5862 43.0312 13.9219V20.0443C43.0286 20.9339 43.261 21.8085 43.7048 22.5795C44.1486 23.3505 44.7882 23.9906 45.5587 24.4351C46.3293 24.8796 47.2036 25.1128 48.0932 25.111C48.9828 25.1092 49.8562 24.8726 50.625 24.425V35.3461C50.1085 34.6022 49.4768 33.9453 48.7536 33.4002L45.0562 30.6281C44.8682 30.4871 44.6446 30.4012 44.4105 30.3801C44.1764 30.359 43.9411 30.4035 43.7309 30.5086C43.5206 30.6137 43.3438 30.7753 43.2203 30.9752C43.0967 31.1752 43.0312 31.4056 43.0312 31.6406V34.4494L41.8447 34.7462C40.7429 35.0185 39.7282 35.5657 38.8954 36.3368C38.0626 37.1079 37.439 38.0776 37.0828 39.1553L37.0564 39.2344H34.1719C33.8362 39.2344 33.5143 39.3677 33.2769 39.6051C33.0396 39.8424 32.9062 40.1643 32.9062 40.5V43.5217C32.9078 44.7339 33.3902 45.896 34.2474 46.7531C35.1047 47.6102 36.2669 48.0924 37.4791 48.0938H39.7178L38.5487 50.4318C38.3651 50.7997 38.0802 51.1075 37.7275 51.3189C33.9321 53.5891 31.1455 57.2215 29.9361 61.4755L29.7479 62.1341C29.3242 63.617 29.1093 65.1518 29.1094 66.694C29.1098 67.0295 29.1283 67.3647 29.1649 67.6981C29.1281 67.9114 29.1096 68.1274 29.1094 68.3438V68.3438ZM26.0244 16.4531C26.0244 16.4458 26.0244 16.4386 26.0244 16.4313C26.0254 16.378 26.0297 16.3248 26.0374 16.272C26.0396 16.2562 26.0417 16.2403 26.0445 16.2255C26.0552 16.1651 26.0702 16.1057 26.0894 16.0475C26.0916 16.0412 26.0947 16.035 26.097 16.0287C26.116 15.9762 26.1384 15.925 26.1643 15.8755C26.1719 15.8608 26.1801 15.8463 26.1877 15.8319C26.2184 15.7767 26.2531 15.7238 26.2915 15.6737C26.4094 15.5219 26.5606 15.3991 26.7333 15.3149C26.9061 15.2306 27.0959 15.1871 27.2881 15.1877H27.8438V16.4533L26.0244 16.4531ZM50.625 16.9773V20.0443C50.625 20.7157 50.3583 21.3595 49.8836 21.8342C49.4089 22.3089 48.7651 22.5756 48.0938 22.5756C47.4224 22.5756 46.7786 22.3089 46.3039 21.8342C45.8292 21.3595 45.5625 20.7157 45.5625 20.0443V15.1875H48.8352L50.625 16.9773ZM29.5196 73.4062C30.0155 73.0052 30.4412 72.5243 30.7791 71.9834C31.1395 72.4979 31.5512 72.9746 32.0077 73.4062H29.5196ZM51.1085 73.4062H48.0938V59.4844C48.0938 59.1487 47.9604 58.8268 47.7231 58.5894C47.4857 58.3521 47.1638 58.2188 46.8281 58.2188C46.4925 58.2188 46.1705 58.3521 45.9332 58.5894C45.6958 58.8268 45.5625 59.1487 45.5625 59.4844V68.6404C45.0802 68.4443 44.5644 68.3435 44.0437 68.3438H42.8651L43.0377 68.0849C43.5931 67.2518 43.912 66.2835 43.9603 65.2834C44.0086 64.2832 43.7846 63.2887 43.3121 62.4059C42.8396 61.5231 42.1363 60.7851 41.2773 60.2706C40.4183 59.7561 39.4358 59.4843 38.4345 59.4844H37.9688C37.6331 59.4844 37.3112 59.6177 37.0738 59.8551C36.8365 60.0924 36.7031 60.4143 36.7031 60.75C36.7031 61.0857 36.8365 61.4076 37.0738 61.6449C37.3112 61.8823 37.6331 62.0156 37.9688 62.0156H38.4345C38.9776 62.0156 39.5106 62.163 39.9765 62.442C40.4425 62.7211 40.824 63.1214 41.0803 63.6003C41.3366 64.0791 41.4581 64.6186 41.4319 65.1611C41.4057 65.7036 41.2327 66.2288 40.9314 66.6807L39.447 68.9073C39.3199 69.0979 39.2469 69.3194 39.2359 69.5482C39.2248 69.777 39.276 70.0045 39.3841 70.2065C39.4922 70.4085 39.6531 70.5774 39.8496 70.6951C40.0461 70.8128 40.2709 70.875 40.5 70.875H44.0437C44.4464 70.8756 44.8323 71.0358 45.117 71.3205C45.4017 71.6052 45.5619 71.9911 45.5625 72.3938V73.4062H38.3529C36.5733 73.4042 34.8672 72.6964 33.6088 71.4381C32.3505 70.1797 31.6426 68.4736 31.6406 66.694C31.6406 65.3871 31.8228 64.0865 32.1818 62.8299L32.3699 62.1713C33.4038 58.5349 35.7858 55.4298 39.0303 53.4893C39.796 53.0306 40.4146 52.3626 40.8134 51.5641L42.8068 47.5774L43.9273 46.4568C44.1647 46.2195 44.298 45.8975 44.298 45.5619C44.298 45.2262 44.1647 44.9043 43.9273 44.6669C43.69 44.4296 43.368 44.2962 43.0324 44.2962C42.6967 44.2962 42.3748 44.4296 42.1374 44.6669L41.2415 45.5625H37.4791C36.938 45.5619 36.4191 45.3467 36.0364 44.9642C35.6537 44.5816 35.4383 44.0628 35.4375 43.5217V41.7656H37.9688C38.2344 41.7656 38.4933 41.6821 38.7088 41.5268C38.9243 41.3715 39.0855 41.1523 39.1695 40.9003L39.4843 39.9559C39.7068 39.2828 40.0963 38.6771 40.6164 38.1954C41.1366 37.7137 41.7704 37.3718 42.4586 37.2016L44.6039 36.6653C44.8778 36.5968 45.1208 36.4388 45.2945 36.2163C45.4682 35.9939 45.5625 35.7197 45.5625 35.4375V34.1719L47.2349 35.4263C47.9749 35.9826 48.576 36.7028 48.9909 37.5304C50.063 39.681 50.6223 42.0507 50.625 44.4537V70.875C50.625 71.0412 50.6577 71.2058 50.7213 71.3593C50.7849 71.5129 50.8781 71.6524 50.9957 71.77L51.6163 72.3906L51.1085 73.4062ZM73.4062 55.6875H56.9531C56.6175 55.6875 56.2955 55.8208 56.0582 56.0582C55.8208 56.2955 55.6875 56.6175 55.6875 56.9531V73.4062H53.9384L54.2882 72.7067C54.407 72.4691 54.448 72.2001 54.4054 71.9379C54.3628 71.6756 54.2388 71.4335 54.0509 71.2457L53.1562 70.3509V16.2237C53.1635 14.1571 52.5921 12.1297 51.5066 10.371C50.4211 8.61234 48.865 7.19268 47.0143 6.27275L46.9454 6.23747C45.2706 5.40068 43.4119 4.99969 41.5412 5.07159C39.6704 5.14348 37.848 5.68594 36.2424 6.6488L35.6865 6.98103C33.4847 8.30171 31.7609 10.2896 30.7653 12.6562H27.2885C26.7115 12.6563 26.1421 12.7879 25.6236 13.0409C25.1051 13.2939 24.6511 13.6618 24.2961 14.1166C23.941 14.5714 23.6943 15.1011 23.5746 15.6655C23.4549 16.2299 23.4654 16.8141 23.6053 17.3739L24.3914 20.5188C24.7321 21.8887 25.5216 23.105 26.6342 23.9738C27.7467 24.8426 29.1181 25.3139 30.5297 25.3123H32.2521L31.113 27.9702C29.918 30.7617 28.1987 33.2983 26.0485 35.4424L25.955 35.5359C23.1419 38.3554 21.0208 41.7886 19.7581 45.566L19.0681 47.6342C18.8811 48.1957 18.7137 48.7619 18.5661 49.3328C17.8404 49.2492 17.1576 48.9461 16.6087 48.4641C16.0598 47.9822 15.671 47.3442 15.4943 46.6354L13.8841 40.1931C13.8298 39.9758 13.7188 39.7768 13.5624 39.6165C13.406 39.4561 13.2099 39.3401 12.9941 39.2803C12.7782 39.2205 12.5504 39.2191 12.3338 39.2761C12.1172 39.3332 11.9197 39.4467 11.7613 39.605L10.9228 40.4435C9.86849 41.5031 9.07384 42.7924 8.60112 44.2104C8.12839 45.6284 7.99045 47.1367 8.19809 48.6169C8.57771 51.2801 9.78987 53.7549 11.6612 55.6875H2.53125V20.25H18.9844C19.32 20.25 19.642 20.1167 19.8793 19.8793C20.1167 19.642 20.25 19.32 20.25 18.9844V2.53125H55.6875V18.9844C55.6875 19.32 55.8208 19.642 56.0582 19.8793C56.2955 20.1167 56.6175 20.25 56.9531 20.25H73.4062V55.6875Z" fill="black"/>
<path d="M32.2768 37.1205C32.4097 37.2202 32.561 37.2928 32.722 37.334C32.883 37.3753 33.0506 37.3844 33.2151 37.3609C33.3797 37.3374 33.538 37.2817 33.681 37.197C33.824 37.1124 33.9489 37.0003 34.0486 36.8674C35.7215 34.6384 37.0233 32.1538 37.9039 29.5097C38.01 29.1912 37.9853 28.8436 37.8352 28.5434C37.6851 28.2431 37.4219 28.0148 37.1034 27.9086C36.7849 27.8025 36.4373 27.8272 36.1371 27.9773C35.8368 28.1274 35.6085 28.3907 35.5024 28.7092C34.7079 31.0952 33.5332 33.3372 32.0238 35.3486C31.8224 35.6171 31.7359 35.9547 31.7833 36.287C31.8308 36.6192 32.0083 36.9191 32.2768 37.1205V37.1205Z" fill="black"/>
<path d="M28.6031 42.0188C28.3346 41.8174 27.9971 41.7309 27.6648 41.7784C27.3325 41.8258 27.0327 42.0033 26.8313 42.2719C24.2105 45.7813 22.7903 50.0419 22.7812 54.4219C22.7812 54.7575 22.9146 55.0795 23.1519 55.3168C23.3893 55.5542 23.7112 55.6875 24.0469 55.6875C24.3825 55.6875 24.7045 55.5542 24.9418 55.3168C25.1792 55.0795 25.3125 54.7575 25.3125 54.4219C25.3204 50.5894 26.5631 46.8614 28.8563 43.7906C29.0577 43.5221 29.1441 43.1846 29.0967 42.8523C29.0492 42.52 28.8717 42.2202 28.6031 42.0188V42.0188Z" fill="black"/>
<path d="M37.9688 16.4531C38.6677 16.4531 39.2344 15.8865 39.2344 15.1875C39.2344 14.4885 38.6677 13.9219 37.9688 13.9219C37.2698 13.9219 36.7031 14.4885 36.7031 15.1875C36.7031 15.8865 37.2698 16.4531 37.9688 16.4531Z" fill="black"/>
<path d="M43.0312 41.7656C43.7302 41.7656 44.2969 41.199 44.2969 40.5C44.2969 39.801 43.7302 39.2344 43.0312 39.2344C42.3323 39.2344 41.7656 39.801 41.7656 40.5C41.7656 41.199 42.3323 41.7656 43.0312 41.7656Z" fill="black"/>
</svg>
