<svg width="62" height="77" viewBox="0 0 62 77" fill="none" xmlns="http://www.w3.org/2000/svg">
<path d="M52.4454 67.7985V56.2855H60.1207V70.3569C60.1207 71.714 59.5816 73.0155 58.622 73.9751C57.6624 74.9347 56.3609 75.4738 55.0039 75.4738H52.4454V67.7985Z" fill="#F6BB92"/>
<path d="M56.2831 44.7726L57.3629 42.2142L58.3207 39.945C58.8339 38.7249 58.9719 37.3795 58.7172 36.0806C58.4625 34.7817 57.8266 33.5881 56.8907 32.652C55.6416 31.4026 54.9399 29.7081 54.9399 27.9413V21.7467H26.8611V27.9418C26.8612 29.7086 26.1595 31.4031 24.9103 32.6525C23.9744 33.5884 23.3385 34.7819 23.0837 36.0807C22.8289 37.3796 22.9667 38.7249 23.4797 39.945L24.4934 42.3565L56.2831 44.7726Z" fill="#834B10"/>
<path d="M60.1207 49.9954C60.1207 48.1785 59.4762 46.4205 58.3018 45.0342C57.1274 43.6479 55.4993 42.7232 53.7072 42.4245L52.4454 42.2142L45.839 41.1131L40.9324 46.0519L35.9742 41.0751L26.861 42.2142V75.4739H52.4454V65.2401C53.6025 64.0825 54.3331 62.5668 54.5178 60.9405C54.7026 59.3142 54.3306 57.6733 53.4627 56.2856H60.1207V49.9954Z" fill="#85BC94"/>
<path d="M55.0038 23.0259H26.861V15.3506C26.861 11.6187 28.3435 8.03955 30.9824 5.40065C33.6213 2.76175 37.2005 1.27924 40.9324 1.27924C44.6644 1.27924 48.2435 2.76175 50.8824 5.40065C53.5213 8.03955 55.0038 11.6187 55.0038 15.3506V23.0259Z" fill="#834B10"/>
<path d="M51.1662 19.1883H49.8869V11.513H31.9779V19.1883H30.6987C29.6809 19.1883 28.7047 19.5926 27.985 20.3123C27.2653 21.032 26.861 22.0082 26.861 23.026C26.861 24.0438 27.2653 25.0199 27.985 25.7396C28.7047 26.4593 29.6809 26.8636 30.6987 26.8636H31.9779V28.1428C31.9779 30.5177 32.9213 32.7953 34.6006 34.4746C36.2799 36.1539 38.5575 37.0974 40.9324 37.0974C43.3073 37.0974 45.5849 36.1539 47.2642 34.4746C48.9435 32.7953 49.8869 30.5177 49.8869 28.1428V26.8636H51.1662C52.184 26.8636 53.1601 26.4593 53.8798 25.7396C54.5995 25.0199 55.0038 24.0438 55.0038 23.026C55.0038 22.0082 54.5995 21.032 53.8798 20.3123C53.1601 19.5926 52.184 19.1883 51.1662 19.1883Z" fill="#F6BB92"/>
<path d="M39.6532 50.9368V75.4738H11.0307C11.9849 73.9884 13.0957 72.6097 14.3439 71.3611L14.4382 71.2668C16.7255 68.9834 18.5551 66.2838 19.8285 63.3133C20.3306 62.1428 20.8311 60.9723 21.1957 60.1232C21.5267 59.3509 21.7441 58.844 21.7441 58.844H18.0632C16.9224 58.843 15.8145 58.4612 14.9153 57.759C14.0162 57.0569 13.3772 56.0746 13.0998 54.968L12.4698 52.4479L12.3051 51.7891C12.2108 51.412 12.2038 51.0183 12.2844 50.638C12.365 50.2577 12.5313 49.9007 12.7705 49.5943C13.0098 49.2879 13.3157 49.04 13.665 48.8695C14.0144 48.699 14.398 48.6103 14.7868 48.6103H19.1857C20.0105 46.1334 21.6946 44.0336 23.9332 42.6907L24.4929 42.3565C25.9316 41.4937 27.5646 41.0075 29.241 40.9429C30.9174 40.8784 32.583 41.2375 34.0838 41.9871L34.1398 42.0159C35.7965 42.8443 37.1897 44.1177 38.1635 45.6933C39.1373 47.2689 39.6531 49.0846 39.6532 50.9368Z" fill="#BD9070"/>
<path d="M39.6531 51.1687V54.7984C39.6531 55.6039 39.3997 56.3889 38.9287 57.0423C38.4577 57.6957 37.7931 58.1844 37.029 58.4391C36.2413 58.7016 35.3897 58.7016 34.602 58.4391C33.8379 58.1844 33.1733 57.6957 32.7023 57.0423C32.2313 56.3889 31.9779 55.6039 31.9778 54.7984V48.6102H37.0947L39.6531 51.1687Z" fill="#9E785D"/>
<path d="M27.7661 57.1906L25.2077 59.749C24.9675 59.9887 24.642 60.1233 24.3026 60.1232H21.1958C21.5267 59.3509 21.7442 58.844 21.7442 58.844H18.0633C16.8175 58.8452 15.6145 58.3901 14.6813 57.5648H23.7734L25.956 55.3805C26.1961 55.1405 26.5216 55.0056 26.8611 55.0056C27.2005 55.0056 27.5261 55.1405 27.7661 55.3805C28.0062 55.6205 28.141 55.9461 28.141 56.2855C28.141 56.625 28.0062 56.9506 27.7661 57.1906V57.1906Z" fill="#9E785D"/>
<path d="M16.6273 48.6102V50.1563C16.6273 50.7641 16.3859 51.347 15.9561 51.7767C15.5264 52.2065 14.9435 52.4479 14.3357 52.4479H12.4698L12.3051 51.7891C12.2109 51.4119 12.2038 51.0183 12.2844 50.6379C12.3651 50.2576 12.5313 49.9007 12.7705 49.5943C13.0098 49.2879 13.3157 49.04 13.665 48.8695C14.0144 48.6989 14.3981 48.6103 14.7868 48.6102H16.6273Z" fill="#9E785D"/>
<path d="M20.5952 72.3141C20.3577 72.3139 20.125 72.2476 19.923 72.1226C19.7211 71.9977 19.5579 71.819 19.4518 71.6065C19.3457 71.394 19.3008 71.1562 19.3221 70.9197C19.3435 70.6832 19.4303 70.4573 19.5728 70.2673C21.0985 68.2342 22.2859 65.9681 23.0891 63.5564C23.1409 63.3955 23.2242 63.2465 23.334 63.118C23.4438 62.9895 23.578 62.884 23.7289 62.8077C23.8797 62.7313 24.0442 62.6856 24.2128 62.6732C24.3814 62.6609 24.5507 62.682 24.7111 62.7355C24.8715 62.7889 25.0197 62.8736 25.1471 62.9847C25.2745 63.0958 25.3787 63.231 25.4535 63.3826C25.5284 63.5342 25.5724 63.6991 25.5832 63.8678C25.5939 64.0365 25.5711 64.2057 25.516 64.3655C24.6261 67.0381 23.3103 69.5493 21.6195 71.8024C21.5004 71.9615 21.3458 72.0906 21.1679 72.1794C20.9901 72.2683 20.794 72.3144 20.5952 72.3141V72.3141Z" fill="#9E785D"/>
<path d="M30.6987 19.1883C31.9013 18.7875 33.0021 18.1294 33.9245 17.2598C34.8468 16.3903 35.5685 15.3301 36.0394 14.1531L37.0948 11.513L30.6987 10.2338V19.1883Z" fill="#834B10"/>
<path d="M37.0947 11.513L37.2446 11.7376C38.7725 14.0295 40.8426 15.9088 43.2711 17.2085C45.6997 18.5083 48.4116 19.1883 51.1661 19.1883V10.2338L37.0947 11.513Z" fill="#834B10"/>
<path d="M36.1353 23.3457C37.0185 23.3457 37.7344 22.6298 37.7344 21.7467C37.7344 20.8636 37.0185 20.1476 36.1353 20.1476C35.2522 20.1476 34.5363 20.8636 34.5363 21.7467C34.5363 22.6298 35.2522 23.3457 36.1353 23.3457Z" fill="#834B10"/>
<path d="M45.7295 23.3457C46.6126 23.3457 47.3285 22.6298 47.3285 21.7467C47.3285 20.8636 46.6126 20.1476 45.7295 20.1476C44.8464 20.1476 44.1305 20.8636 44.1305 21.7467C44.1305 22.6298 44.8464 23.3457 45.7295 23.3457Z" fill="#834B10"/>
<path d="M40.9324 28.1427H38.374C38.1559 28.1427 37.9415 28.087 37.751 27.9808C37.5606 27.8746 37.4004 27.7215 37.2858 27.536C37.1712 27.3505 37.1059 27.1388 37.0961 26.921C37.0863 26.7031 37.1323 26.4864 37.2299 26.2914L39.7883 21.1745C39.8626 21.0229 39.9662 20.8876 40.0931 20.7762C40.22 20.6648 40.3677 20.5797 40.5277 20.5257C40.6876 20.4717 40.8567 20.4499 41.0251 20.4615C41.1936 20.4732 41.358 20.5181 41.509 20.5936C41.66 20.6691 41.7946 20.7737 41.9049 20.9015C42.0153 21.0293 42.0993 21.1776 42.152 21.338C42.2048 21.4984 42.2253 21.6676 42.2123 21.8359C42.1993 22.0043 42.1532 22.1684 42.0765 22.3188L40.4437 25.5843H40.9324C41.2717 25.5843 41.5971 25.7191 41.837 25.959C42.0769 26.1989 42.2116 26.5242 42.2116 26.8635C42.2116 27.2028 42.0769 27.5282 41.837 27.7681C41.5971 28.008 41.2717 28.1427 40.9324 28.1427Z" fill="#834B10"/>
<path d="M48.6078 52.4479C48.2685 52.4479 47.9431 52.3131 47.7032 52.0732C47.4633 51.8333 47.3286 51.5079 47.3286 51.1687V42.2142C47.3286 41.8749 47.4633 41.5495 47.7032 41.3096C47.9431 41.0697 48.2685 40.9349 48.6078 40.9349C48.947 40.9349 49.2724 41.0697 49.5123 41.3096C49.7522 41.5495 49.887 41.8749 49.887 42.2142V51.1687C49.887 51.5079 49.7522 51.8333 49.5123 52.0732C49.2724 52.3131 48.947 52.4479 48.6078 52.4479Z" fill="#C3C3C3"/>
<path d="M48.6077 58.844C50.7271 58.844 52.4453 57.1258 52.4453 55.0064C52.4453 52.8869 50.7271 51.1687 48.6077 51.1687C46.4882 51.1687 44.77 52.8869 44.77 55.0064C44.77 57.1258 46.4882 58.844 48.6077 58.844Z" fill="#E4E4E2"/>
<path d="M48.6078 56.2856C49.3143 56.2856 49.887 55.7129 49.887 55.0064C49.887 54.2999 49.3143 53.7272 48.6078 53.7272C47.9013 53.7272 47.3286 54.2999 47.3286 55.0064C47.3286 55.7129 47.9013 56.2856 48.6078 56.2856Z" fill="#C3C3C3"/>
<path d="M53.7246 75.4739H34.5363C33.5185 75.4739 32.5424 75.0695 31.8227 74.3498C31.103 73.6301 30.6987 72.654 30.6987 71.6362C30.6987 70.6184 31.103 69.6423 31.8227 68.9226C32.5424 68.2029 33.5185 67.7985 34.5363 67.7985H35.8155C35.8155 67.12 36.0851 66.4693 36.5649 65.9895C37.0447 65.5097 37.6954 65.2401 38.374 65.2401H38.5935C39.272 65.2401 39.9227 65.5097 40.4025 65.9894L42.2116 67.7985H53.7246V75.4739Z" fill="#F6BB92"/>
<path d="M11.1733 69.5353C10.9843 69.954 10.8878 70.4085 10.8906 70.8678C10.8933 71.3272 10.9952 71.7805 11.1892 72.1969C11.3832 72.6133 11.6648 72.9829 12.0148 73.2804C12.3648 73.5779 12.7749 73.7964 13.217 73.9209L18.141 75.3121C19.1205 75.5889 20.1697 75.4653 21.058 74.9684C21.9463 74.4716 22.6009 73.6423 22.8777 72.6628C23.1544 71.6835 23.0307 70.6343 22.5339 69.7461C22.037 68.8578 21.2078 68.2034 20.2284 67.9265L18.9972 67.5787C19.0886 67.2554 19.1154 66.9173 19.0761 66.5836C19.0368 66.2499 18.9321 65.9272 18.7681 65.634C18.6041 65.3408 18.384 65.0827 18.1202 64.8745C17.8565 64.6664 17.5544 64.5122 17.231 64.4208L17.0198 64.3612C16.6965 64.2698 16.3583 64.243 16.0247 64.2823C15.691 64.3217 15.3683 64.4263 15.0751 64.5903C13.6249 65.4016 12.4732 66.6566 11.7892 68.171L11.1733 69.5353Z" fill="#F6BB92"/>
<path d="M4.50974 34.348C5.36137 34.3481 6.17812 34.6864 6.78035 35.2886L8.39824 36.9065L10.016 35.2886C10.6182 34.6864 11.4349 34.3481 12.2866 34.348C13.0028 34.348 13.6984 34.5874 14.263 35.0282C14.8275 35.469 15.2284 36.0858 15.4021 36.7806C15.5985 37.5662 15.5472 38.3933 15.2553 39.1486C14.9633 39.9039 14.4449 40.5504 13.7711 40.9996L8.3984 44.5814L3.02569 40.9996C2.3519 40.5505 1.83349 39.9039 1.5415 39.1486C1.24952 38.3933 1.19823 37.5662 1.39468 36.7806C1.56834 36.0859 1.96923 35.4691 2.53365 35.0283C3.09807 34.5876 3.79361 34.3481 4.50974 34.348V34.348Z" fill="#DC4D41"/>
<path d="M30.6987 19.1882H31.9779V26.8635H30.6987V19.1882Z" fill="#EEB58E"/>
<path d="M49.8869 19.1882H51.1661V26.8635H49.8869V19.1882Z" fill="#EEB58E"/>
<path d="M35.9742 41.0751L40.9324 46.0519L45.839 41.1131C45.5403 41.0633 45.269 40.9092 45.0733 40.6782C44.8775 40.4471 44.7701 40.1541 44.7701 39.8513V35.8181H37.0948V39.8058C37.0948 40.1175 36.9809 40.4186 36.7745 40.6523C36.5682 40.8861 36.2836 41.0364 35.9742 41.0751V41.0751Z" fill="#F6BB92"/>
<path d="M40.9324 37.0973C38.5575 37.0973 36.2799 36.1539 34.6006 34.4746C32.9213 32.7953 31.9778 30.5177 31.9778 28.1428V26.8636H49.8869V28.1428C49.8869 30.5177 48.9435 32.7953 47.2642 34.4746C45.5849 36.1539 43.3073 37.0973 40.9324 37.0973V37.0973Z" fill="#85BC94"/>
<path d="M25.5818 51.1687C26.2883 51.1687 26.861 50.5959 26.861 49.8894C26.861 49.183 26.2883 48.6102 25.5818 48.6102C24.8753 48.6102 24.3026 49.183 24.3026 49.8894C24.3026 50.5959 24.8753 51.1687 25.5818 51.1687Z" fill="#9E785D"/>
<path d="M36.1353 23.3457C37.0185 23.3457 37.7344 22.6298 37.7344 21.7467C37.7344 20.8636 37.0185 20.1476 36.1353 20.1476C35.2522 20.1476 34.5363 20.8636 34.5363 21.7467C34.5363 22.6298 35.2522 23.3457 36.1353 23.3457Z" fill="black"/>
<path d="M45.7295 23.3457C46.6126 23.3457 47.3285 22.6298 47.3285 21.7467C47.3285 20.8636 46.6126 20.1476 45.7295 20.1476C44.8464 20.1476 44.1305 20.8636 44.1305 21.7467C44.1305 22.6298 44.8464 23.3457 45.7295 23.3457Z" fill="black"/>
<path d="M48.6078 56.2856C49.3143 56.2856 49.887 55.7129 49.887 55.0064C49.887 54.2999 49.3143 53.7272 48.6078 53.7272C47.9013 53.7272 47.3286 54.2999 47.3286 55.0064C47.3286 55.7129 47.9013 56.2856 48.6078 56.2856Z" fill="black"/>
<path d="M58.319 43.2376L59.4997 40.4412C60.1152 38.9872 60.2817 37.3824 59.9778 35.833C59.6739 34.2837 58.9134 32.8606 57.7942 31.747C57.2941 31.2474 56.8975 30.6541 56.6269 30.0011C56.3564 29.3481 56.2173 28.6482 56.2175 27.9413L56.2831 15.3506C56.2831 11.2794 54.6658 7.37489 51.787 4.49609C48.9082 1.61729 45.0037 0 40.9325 0C36.8612 0 32.9568 1.61729 30.078 4.49609C27.1992 7.37489 25.5819 11.2794 25.5819 15.3506V27.9413C25.5777 29.3678 25.0114 30.7352 24.0057 31.747C22.8895 32.8624 22.131 34.2852 21.8272 35.8337C21.5234 37.3821 21.6879 38.986 22.2999 40.4405L22.8874 41.8378C20.8436 43.169 19.2461 45.0825 18.301 47.3311H14.7869C14.2037 47.3292 13.6278 47.4612 13.1036 47.7169C12.5794 47.9726 12.1209 48.3451 11.7633 48.8058C11.6721 48.9223 11.5877 49.0438 11.5105 49.1699C11.1301 49.7888 10.9349 50.5036 10.9481 51.2299C10.9536 51.5234 10.9923 51.8154 11.0635 52.1001L11.2282 52.7589L11.8581 55.278C12.2023 56.6627 13.0003 57.8921 14.1248 58.7703C15.2493 59.6484 16.6355 60.1247 18.0623 60.1231H19.8032L18.6519 62.8104C18.5535 63.0405 18.4493 63.2699 18.3426 63.4988C18.0998 63.3688 17.8438 63.2651 17.5789 63.1895L17.3674 63.1297C16.8826 62.9913 16.3752 62.9504 15.8745 63.0095C15.3738 63.0685 14.8898 63.2262 14.4504 63.4735C12.764 64.4217 11.4234 65.8826 10.6233 67.6442L10.0072 69.0087C9.65967 69.778 9.53708 70.63 9.65367 71.4661C9.77026 72.3023 10.1213 73.0882 10.666 73.7331C10.4197 74.0784 10.1824 74.428 9.95431 74.7818C9.82998 74.9751 9.76001 75.1983 9.75176 75.4279C9.74352 75.6576 9.79729 75.8852 9.90743 76.0869C10.0176 76.2886 10.18 76.4569 10.3777 76.5741C10.5754 76.6914 10.801 76.7532 11.0308 76.7531H55.0039C56.6996 76.7512 58.3254 76.0767 59.5245 74.8776C60.7236 73.6785 61.3981 72.0527 61.4 70.357V49.995C61.4001 48.7137 61.1252 47.4474 60.5936 46.2816C60.0621 45.1157 59.2864 44.0777 58.319 43.2376V43.2376ZM58.8415 49.995V55.0064H54.1322C53.9936 54.8226 53.8499 54.6426 53.6964 54.47C53.5855 53.4337 53.1616 52.4558 52.4811 51.6664C51.8005 50.8771 50.8957 50.3137 49.887 50.0515V43.0845L52.235 43.476H52.2363L53.497 43.6869C54.9907 43.9348 56.3479 44.7051 57.3267 45.8603C58.3055 47.0156 58.8423 48.4809 58.8415 49.995V49.995ZM51.4568 64.4284C51.4512 64.4353 51.4462 64.4428 51.4408 64.4499C51.4205 64.4758 51.4005 64.5017 51.3821 64.5298C51.3776 64.5367 51.3739 64.5439 51.3695 64.5508C51.3512 64.5791 51.3336 64.6077 51.3176 64.6374C51.3149 64.6424 51.3128 64.6478 51.3101 64.6534C51.2941 64.6854 51.2781 64.7174 51.2639 64.7511C51.2625 64.7545 51.2615 64.7582 51.2601 64.7615C51.2459 64.7965 51.2329 64.8322 51.2217 64.8686C51.2206 64.8725 51.2199 64.8765 51.2188 64.8802C51.2083 64.9161 51.1987 64.9524 51.1913 64.9897C51.1892 64.9998 51.1884 65.0103 51.1865 65.0204C51.1813 65.0513 51.1758 65.0821 51.1726 65.1136C51.1685 65.1558 51.1662 65.1985 51.1662 65.2415V66.5208H42.7416L41.3078 65.0869C41.1898 64.9701 41.0645 64.861 40.9325 64.7604V50.9368C40.9327 49.6456 40.711 48.364 40.2769 47.148C40.5476 47.3112 40.8694 47.368 41.1797 47.3073C41.49 47.2465 41.7666 47.0726 41.9559 46.8194L45.3399 42.3074C45.4344 42.3352 45.5305 42.3575 45.6277 42.3742L47.3286 42.6577V50.0515C46.5267 50.2581 45.7869 50.6563 45.1728 51.2118C44.5587 51.7673 44.0885 52.4636 43.8028 53.2408C43.517 54.018 43.4242 54.853 43.5322 55.674C43.6403 56.495 43.9459 57.2776 44.423 57.9544C44.9001 58.6313 45.5343 59.1822 46.2713 59.56C47.0082 59.9377 47.8258 60.131 48.6538 60.1231C49.4819 60.1153 50.2957 59.9066 51.0253 59.5149C51.7549 59.1233 52.3786 58.5604 52.8428 57.8747C53.2861 58.96 53.3991 60.152 53.1675 61.3012C52.936 62.4505 52.3703 63.5058 51.5414 64.3347C51.5116 64.3648 51.4835 64.396 51.4568 64.4284V64.4284ZM30.6962 20.4675H30.6987V25.5844C30.3628 25.5845 30.03 25.5185 29.7196 25.3901C29.4091 25.2617 29.127 25.0734 28.8893 24.8359C28.4092 24.3563 28.1394 23.7057 28.139 23.0272C28.1387 22.3487 28.4079 21.6978 28.8875 21.2177C29.367 20.7377 30.0176 20.4678 30.6962 20.4675V20.4675ZM53.7247 23.0259C53.7239 23.7042 53.454 24.3545 52.9744 24.8341C52.4948 25.3137 51.8445 25.5835 51.1662 25.5844V20.4675C51.8445 20.4683 52.4948 20.7381 52.9744 21.2177C53.454 21.6973 53.7239 22.3476 53.7247 23.0259V23.0259ZM48.6078 25.5844H40.4438L42.0766 22.3188C42.1533 22.1684 42.1994 22.0043 42.2124 21.836C42.2253 21.6677 42.2049 21.4984 42.1521 21.3381C42.0993 21.1777 42.0154 21.0293 41.905 20.9016C41.7946 20.7738 41.6601 20.6692 41.5091 20.5936C41.3581 20.5181 41.1936 20.4733 41.0252 20.4616C40.8568 20.45 40.6877 20.4718 40.5278 20.5258C40.3678 20.5798 40.2201 20.6649 40.0932 20.7763C39.9663 20.8876 39.8627 21.023 39.7884 21.1746L37.5835 25.5844H33.2572V19.3827C35.0506 18.258 36.4407 16.5931 37.2272 14.6277L37.4327 14.1139C40.2698 17.4779 44.2495 19.6753 48.6078 20.2842V25.5844ZM38.3675 28.1428H38.3731H38.3776H48.6078C48.6078 30.1784 47.7991 32.1306 46.3597 33.57C44.9203 35.0094 42.9681 35.8181 40.9325 35.8181C38.8969 35.8181 36.9446 35.0094 35.5052 33.57C34.0658 32.1306 33.2572 30.1784 33.2572 28.1428H38.3675ZM40.9325 38.3765C41.7955 38.377 42.6552 38.2682 43.4909 38.0527V39.8508C43.4916 40.0427 43.5136 40.2339 43.5566 40.4209L40.9325 43.9199L38.2994 40.409C38.3482 40.2117 38.3733 40.0093 38.374 39.8061V38.0527C39.2098 38.2682 40.0694 38.377 40.9325 38.3765V38.3765ZM38.374 54.7985C38.374 55.477 38.1045 56.1278 37.6247 56.6076C37.1449 57.0874 36.4941 57.3569 35.8156 57.3569C35.1371 57.3569 34.4863 57.0874 34.0065 56.6076C33.5267 56.1278 33.2572 55.477 33.2572 54.7985V49.8895H36.5651L38.374 51.6985V54.7985ZM51.1662 55.0064C51.1662 55.5124 51.0162 56.007 50.735 56.4277C50.4539 56.8485 50.0543 57.1764 49.5869 57.37C49.1194 57.5637 48.6049 57.6144 48.1087 57.5156C47.6124 57.4169 47.1565 57.1732 46.7987 56.8154C46.4409 56.4576 46.1972 56.0018 46.0985 55.5055C45.9998 55.0092 46.0505 54.4948 46.2441 54.0273C46.4377 53.5598 46.7657 53.1602 47.1864 52.8791C47.6071 52.598 48.1018 52.4479 48.6078 52.4479C49.2861 52.4487 49.9364 52.7185 50.416 53.1981C50.8957 53.6777 51.1655 54.3281 51.1662 55.0064V55.0064ZM57.1418 39.4479L56.1334 41.836C55.4273 41.5166 54.6826 41.2905 53.9181 41.1636L52.6568 40.9527H52.6559L46.0493 39.8508V36.9998C47.604 36.1018 48.8951 34.8107 49.7932 33.2561C50.6914 31.7016 51.1648 29.9381 51.1662 28.1428C52.0393 28.1435 52.8978 27.9194 53.6591 27.4921V27.9413C53.6589 28.9843 53.8643 30.0171 54.2636 30.9806C54.6629 31.9441 55.2483 32.8195 55.9862 33.5566C56.7444 34.3113 57.2596 35.2756 57.4655 36.3254C57.6714 37.3752 57.5587 38.4626 57.1418 39.4479V39.4479ZM40.9325 2.55844C44.325 2.55916 47.5783 3.90713 49.9771 6.30597C52.376 8.70481 53.7239 11.9581 53.7247 15.3506V18.5974C52.9477 18.1459 52.0649 17.9083 51.1662 17.909C50.7665 17.909 50.3697 17.8931 49.9845 17.8632C47.6458 17.6916 45.3775 16.9863 43.3537 15.8016C41.33 14.6169 39.6046 12.9843 38.3101 11.0289L38.1598 10.8035C38.0305 10.6095 37.8506 10.4545 37.6397 10.3553C37.4287 10.2562 37.1947 10.2165 36.9628 10.2406C36.731 10.2648 36.5101 10.3518 36.3241 10.4924C36.1381 10.6329 35.9941 10.8216 35.9076 11.038L34.8522 13.678C34.4622 14.6551 33.8691 15.5381 33.1121 16.2686C32.3552 16.9991 31.4516 17.5605 30.4613 17.9154C29.644 17.9525 28.8478 18.1865 28.1403 18.5974V15.3506C28.1442 11.9591 29.4931 8.70759 31.8913 6.30943C34.2895 3.91127 37.541 2.56229 40.9325 2.55844V2.55844ZM25.8148 33.5566C26.5545 32.8209 27.1409 31.9457 27.54 30.9819C27.9392 30.018 28.1432 28.9846 28.1403 27.9413V27.4552C28.9174 27.9065 29.8001 28.1437 30.6987 28.1428C30.7001 29.9381 31.1736 31.7016 32.0718 33.2561C32.9699 34.8107 34.261 36.1017 35.8156 36.9998V39.8062L32.9543 40.1636C32.7122 40.0884 32.4652 40.0176 32.2109 39.9573C29.8468 39.3985 27.3654 39.6203 25.1378 40.5894L24.6581 39.4495C24.2431 38.4636 24.1315 37.3763 24.3375 36.3266C24.5434 35.277 25.0577 34.3125 25.8145 33.5566H25.8148ZM14.7869 49.8895H15.3481V50.1564C15.3478 50.4248 15.2411 50.6821 15.0513 50.8719C14.8615 51.0617 14.6042 51.1684 14.3358 51.1687H13.5093C13.5093 51.1609 13.5093 51.1527 13.5102 51.1454C13.5112 51.0918 13.5155 51.0384 13.5232 50.9855C13.5254 50.9695 13.5275 50.9535 13.5304 50.9375C13.5411 50.8765 13.5564 50.8164 13.5759 50.7576C13.578 50.7514 13.581 50.7454 13.5831 50.7392C13.6025 50.6859 13.6254 50.6339 13.6516 50.5836C13.6591 50.5689 13.667 50.5544 13.6751 50.54C13.7061 50.4841 13.7412 50.4307 13.7801 50.3801C13.8993 50.2268 14.052 50.1029 14.2265 50.0179C14.401 49.9328 14.5927 49.8889 14.7869 49.8895V49.8895ZM24.3027 60.1232C24.4706 60.1232 24.637 60.0902 24.7922 60.0259C24.9474 59.9616 25.0884 59.8674 25.2072 59.7486L27.7657 57.1901C27.8844 57.0714 27.9787 56.9303 28.043 56.7751C28.1072 56.6199 28.1403 56.4536 28.1403 56.2856C28.1403 56.1176 28.1072 55.9512 28.043 55.796C27.9787 55.6408 27.8844 55.4998 27.7657 55.381C27.6469 55.2622 27.5058 55.168 27.3506 55.1037C27.1954 55.0394 27.0291 55.0063 26.8611 55.0063C26.6931 55.0063 26.5267 55.0394 26.3715 55.1037C26.2163 55.168 26.0753 55.2622 25.9565 55.381L23.7729 57.5648H18.0633C17.2072 57.5658 16.3754 57.28 15.7007 56.7531C15.026 56.2261 14.5472 55.4884 14.3407 54.6576L14.1082 53.7271H14.3358C15.2825 53.726 16.1901 53.3495 16.8595 52.6801C17.5289 52.0107 17.9055 51.1031 17.9066 50.1564V49.8895H19.1858C19.4542 49.8895 19.7159 49.805 19.9337 49.648C20.1515 49.491 20.3144 49.2695 20.3993 49.0148C21.1272 46.8286 22.6132 44.975 24.5887 43.7891L25.1513 43.4533C27.0939 42.2874 29.4151 41.9263 31.6201 42.4468C31.898 42.5127 32.1667 42.5902 32.4263 42.6793C32.7936 42.8038 33.1521 42.9528 33.4994 43.1253L33.5674 43.1602C34.1478 43.4501 34.6936 43.8049 35.1942 44.2176C35.2075 44.2286 35.2211 44.2395 35.2348 44.2496C36.2794 45.1157 37.106 46.215 37.6481 47.459C37.4756 47.3754 37.2865 47.3317 37.0948 47.3311H31.978C31.6387 47.3311 31.3133 47.4658 31.0734 47.7057C30.8335 47.9456 30.6987 48.271 30.6987 48.6103V54.7985C30.6962 55.6976 30.931 56.5815 31.3796 57.3608C31.8282 58.14 32.4746 58.787 33.2534 59.2363C34.0323 59.6856 34.916 59.9212 35.8151 59.9195C36.7142 59.9177 37.597 59.6785 38.374 59.2262V63.9609C37.5801 63.9606 36.8056 64.2065 36.1572 64.6647C35.5088 65.1229 35.0184 65.7708 34.7535 66.5193H34.5364C33.638 66.5186 32.7553 66.7547 31.9771 67.2037C31.199 67.6528 30.5528 68.2989 30.1039 69.0771C29.6549 69.8552 29.4188 70.738 29.4196 71.6364C29.4203 72.5348 29.6577 73.4172 30.1079 74.1946H23.6082C24.0775 73.3864 24.3166 72.4651 24.2997 71.5306C24.2828 70.5962 24.0105 69.6841 23.5123 68.8934C24.3211 67.4505 24.9922 65.9346 25.5166 64.3658C25.624 64.0439 25.5991 63.6926 25.4475 63.3891C25.2958 63.0856 25.0298 62.8548 24.708 62.7474C24.3862 62.64 24.0348 62.6649 23.7313 62.8165C23.4278 62.9682 23.197 63.2342 23.0896 63.556C22.6822 64.7752 22.1764 65.9592 21.5774 67.0966C21.259 66.9279 20.9236 66.7933 20.5769 66.6952L20.3678 66.636C20.3453 66.2856 20.2743 65.9399 20.1569 65.609C20.4632 65.0198 20.7475 64.4192 21.0043 63.817L22.5874 60.1232H24.3027ZM12.3394 70.0616L12.9555 68.6972C13.5293 67.4342 14.4905 66.3868 15.6998 65.707C15.8462 65.6247 16.0075 65.5722 16.1744 65.5525C16.3413 65.5328 16.5104 65.5464 16.672 65.5924L16.8833 65.6522C17.2096 65.7447 17.4859 65.963 17.6514 66.259C17.817 66.555 17.8584 66.9046 17.7665 67.231C17.6742 67.5575 17.7154 67.9072 17.881 68.2033C18.0466 68.4994 18.323 68.7176 18.6495 68.8099L19.8807 69.1579C20.5299 69.3456 21.0784 69.7826 21.4065 70.3734C21.7346 70.9642 21.8156 71.6608 21.6319 72.3111C21.4482 72.9615 21.0146 73.5127 20.4259 73.8445C19.8371 74.1762 19.141 74.2616 18.4896 74.0819L13.5646 72.6907C13.2996 72.6161 13.0539 72.4852 12.8443 72.3069C12.6346 72.1286 12.4658 71.9072 12.3496 71.6577C12.2333 71.4082 12.1723 71.1366 12.1707 70.8613C12.1691 70.5861 12.2269 70.3137 12.3402 70.0629L12.3394 70.0616ZM58.8415 70.357C58.8403 71.3744 58.4356 72.3498 57.7162 73.0693C56.9968 73.7887 56.0213 74.1934 55.0039 74.1946H34.5364C33.8579 74.1946 33.2071 73.9251 32.7273 73.4453C32.2475 72.9655 31.978 72.3147 31.978 71.6362C31.978 70.9576 32.2475 70.3069 32.7273 69.8271C33.2071 69.3473 33.8579 69.0778 34.5364 69.0778H35.8156C36.1549 69.0778 36.4803 68.943 36.7202 68.7031C36.9601 68.4632 37.0948 68.1378 37.0948 67.7985C37.0944 67.6304 37.1272 67.4639 37.1914 67.3085C37.2555 67.1531 37.3497 67.012 37.4686 66.8931C37.5875 66.7742 37.7287 66.68 37.884 66.6159C38.0394 66.5517 38.2059 66.5189 38.374 66.5193H38.5931C38.9323 66.5219 39.2571 66.6565 39.4986 66.8946L41.3071 68.7031C41.4259 68.8219 41.5669 68.9161 41.7222 68.9804C41.8774 69.0447 42.0437 69.0778 42.2117 69.0778H52.4454C52.7847 69.0778 53.1101 68.943 53.35 68.7031C53.5899 68.4632 53.7247 68.1378 53.7247 67.7985V65.7457C54.6911 64.6453 55.3577 63.3145 55.6602 61.8816C55.9626 60.4486 55.8908 58.9619 55.4516 57.5648H58.8415V70.357Z" fill="black"/>
<path d="M16.6433 36.4703C16.4505 35.6995 16.0566 34.9936 15.5019 34.4247C14.9471 33.8559 14.2513 33.4444 13.4856 33.2322C12.7199 33.0201 11.9115 33.015 11.1431 33.2173C10.3748 33.4197 9.67383 33.8223 9.11189 34.3841L8.39872 35.0972L7.6854 34.3841C7.12349 33.8223 6.42256 33.4196 5.65418 33.2172C4.88579 33.0148 4.07746 33.0199 3.31169 33.232C2.54593 33.4441 1.85016 33.8556 1.29541 34.4245C0.740653 34.9934 0.346782 35.6993 0.154003 36.4702C-0.104858 37.5117 -0.0361423 38.6078 0.350776 39.6088C0.737693 40.6099 1.42398 41.4673 2.31604 42.064L7.68876 45.6458C7.89889 45.7859 8.14578 45.8607 8.39832 45.8607C8.65087 45.8607 8.89776 45.7859 9.10789 45.6458L14.4806 42.064C15.3728 41.4674 16.0592 40.6101 16.4462 39.609C16.8332 38.608 16.9021 37.5119 16.6433 36.4703V36.4703ZM13.0615 39.9352L8.39792 43.0442L3.73485 39.9352C3.28117 39.6318 2.93213 39.1958 2.73534 38.6867C2.53854 38.1777 2.50358 37.6203 2.63521 37.0906C2.7182 36.7589 2.88771 36.4552 3.12644 36.2104C3.36517 35.9656 3.66457 35.7886 3.99409 35.6973C4.3236 35.6061 4.67142 35.6039 5.00206 35.691C5.3327 35.778 5.63431 35.9513 5.8761 36.193L7.49384 37.8109C7.61262 37.9297 7.75365 38.024 7.90885 38.0883C8.06406 38.1525 8.23041 38.1856 8.3984 38.1856C8.5664 38.1856 8.73275 38.1525 8.88795 38.0883C9.04316 38.024 9.18418 37.9297 9.30297 37.8109L10.9207 36.193C11.1625 35.9513 11.4641 35.778 11.7948 35.6908C12.1254 35.6037 12.4733 35.6059 12.8028 35.6972C13.1324 35.7885 13.4318 35.9656 13.6705 36.2104C13.9092 36.4552 14.0787 36.759 14.1616 37.0907C14.2931 37.6205 14.2581 38.1778 14.0612 38.6869C13.8643 39.1959 13.5152 39.6319 13.0615 39.9352V39.9352Z" fill="black"/>
<path d="M25.5818 51.1687C26.2883 51.1687 26.861 50.5959 26.861 49.8894C26.861 49.183 26.2883 48.6102 25.5818 48.6102C24.8753 48.6102 24.3026 49.183 24.3026 49.8894C24.3026 50.5959 24.8753 51.1687 25.5818 51.1687Z" fill="black"/>
</svg>
