<svg width="36" height="36" viewBox="0 0 36 36" fill="none" xmlns="http://www.w3.org/2000/svg">
<path d="M18 3C14.0218 3 10.2064 4.58035 7.3934 7.3934C4.58035 10.2064 3 14.0218 3 18C3 21.9782 4.58035 25.7936 7.3934 28.6066C10.2064 31.4196 14.0218 33 18 33C21.9782 33 25.7936 31.4196 28.6066 28.6066C31.4196 25.7936 33 21.9782 33 18C33 14.0218 31.4196 10.2064 28.6066 7.3934C25.7936 4.58035 21.9782 3 18 3Z" fill="#03A9F4"/>
<path d="M27 12.84C26.3385 13.1333 25.5007 13.4085 24.75 13.5C25.5135 13.047 26.7248 12.1035 27 11.25C26.2868 11.6693 24.9968 12.117 24.1553 12.279C23.4833 11.5665 22.5248 11.25 21.4628 11.25C19.4228 11.25 18 12.9787 18 15V16.5C15 16.5 12.075 14.2148 10.2548 12C9.9345 12.5408 9.7545 13.1738 9.7545 13.8428C9.7545 15.207 11.0078 16.5915 12 17.25C11.3948 17.2312 10.2487 16.7692 9.75 16.5C9.75 16.512 9.75 16.527 9.75 16.5427C9.75 18.318 10.9958 19.5232 12.684 19.8593C12.3758 19.944 12 20.25 10.554 20.25C11.0235 21.7013 13.3837 22.4685 15 22.5C13.7355 23.4803 11.481 24 9.75 24C9.45075 24 9.28875 24.0165 9 23.9827C10.6335 25.0177 12.915 25.5 15 25.5C21.7928 25.5 25.5 20.3115 25.5 15.4725C25.5 15.3135 25.4947 14.781 25.4865 14.625C26.2125 14.1135 26.5065 13.578 27 12.84Z" fill="white"/>
</svg>
