<svg width="36" height="36" viewBox="0 0 36 36" fill="none" xmlns="http://www.w3.org/2000/svg">
<path d="M18 3C14.0218 3 10.2064 4.58035 7.3934 7.3934C4.58035 10.2064 3 14.0218 3 18C3 21.9782 4.58035 25.7936 7.3934 28.6066C10.2064 31.4196 14.0218 33 18 33C21.9782 33 25.7936 31.4196 28.6066 28.6066C31.4196 25.7936 33 21.9782 33 18C33 14.0218 31.4196 10.2064 28.6066 7.3934C25.7936 4.58035 21.9782 3 18 3Z" fill="#1976D2"/>
<path d="M26.9528 13.5308C26.9872 13.4175 27.0037 13.3125 26.9993 13.2188C26.988 12.9473 26.8012 12.75 26.3617 12.75H24.3982C23.9025 12.75 23.6737 13.05 23.5402 13.3508C23.5402 13.3508 22.3163 15.87 20.9055 17.5312C20.448 18.012 20.2155 18 19.968 18C19.8353 18 19.5 17.8395 19.5 17.3992V13.5105C19.5 12.99 19.3702 12.75 18.951 12.75H15.4642C15.159 12.75 15 12.99 15 13.2308C15 13.731 15.6735 13.851 15.75 15.2527V17.97C15.75 18.63 15.6353 18.75 15.3878 18.75C14.7203 18.75 13.4062 16.5 12.5265 13.551C12.336 12.9705 12.1455 12.75 11.6497 12.75H9.6675C9.09525 12.75 9 13.0305 9 13.3305C9 13.8713 9.45 16.7948 11.9062 20.1562C13.6875 22.5938 16.0343 24 18.1117 24C19.3702 24 19.4993 23.6798 19.4993 23.1795V20.9505C19.5 20.3498 19.6372 20.25 20.0377 20.25C20.3235 20.25 20.9062 20.4375 22.0312 21.75C23.3287 23.2635 23.5642 24 24.3082 24H26.2717C26.7277 24 26.9895 23.8088 27 23.4375C27.0023 23.343 26.9888 23.2373 26.958 23.1195C26.8125 22.6875 26.145 21.6315 25.3125 20.625C24.8512 20.0677 24.396 19.5158 24.1868 19.2158C24.0465 19.02 23.9932 18.882 24 18.75C24.0068 18.6112 24.0788 18.4792 24.1868 18.2947C24.1673 18.2947 26.7052 14.7315 26.9528 13.5308Z" fill="white"/>
</svg>
