<svg width="14" height="26" viewBox="0 0 14 26" fill="none" xmlns="http://www.w3.org/2000/svg">
<path d="M0.295376 13.6727L12.2853 25.6295C12.6782 26.021 13.3142 26.0203 13.7064 25.6274C14.0982 25.2346 14.0972 24.5982 13.7043 24.2064L2.42806 12.9613L13.7047 1.71618C14.0976 1.32431 14.0986 0.688345 13.7068 0.295458C13.5102 0.0985088 13.2526 3.23596e-05 12.9951 3.23371e-05C12.7382 3.23146e-05 12.4816 0.0978488 12.2854 0.293432L0.295376 12.2499C0.106173 12.4382 1.15645e-06 12.6943 1.13312e-06 12.9613C1.10978e-06 13.2282 0.106476 13.4841 0.295376 13.6727Z" fill="#FFBD54"/>
</svg>
