<svg width="36" height="36" viewBox="0 0 36 36" fill="none" xmlns="http://www.w3.org/2000/svg">
<path d="M18 3C14.0218 3 10.2064 4.58035 7.3934 7.3934C4.58035 10.2064 3 14.0218 3 18C3 21.9782 4.58035 25.7936 7.3934 28.6066C10.2064 31.4196 14.0218 33 18 33C21.9782 33 25.7936 31.4196 28.6066 28.6066C31.4196 25.7936 33 21.9782 33 18C33 14.0218 31.4196 10.2064 28.6066 7.3934C25.7936 4.58035 21.9782 3 18 3Z" fill="#039BE5"/>
<path d="M19.928 22.777H23.6158L24.1948 19.0308H19.9273V16.9833C19.9273 15.427 20.4358 14.047 21.8915 14.047H24.2308V10.7778C23.8198 10.7223 22.9505 10.6008 21.308 10.6008C17.8783 10.6008 15.8675 12.412 15.8675 16.5385V19.0308H12.3418V22.777H15.8675V33.0738C16.5658 33.1788 17.273 33.25 17.999 33.25C18.6553 33.25 19.2958 33.19 19.928 33.1045V22.777Z" fill="white"/>
</svg>
