<svg width="16" height="16" viewBox="0 0 16 16" fill="none" xmlns="http://www.w3.org/2000/svg">
<path opacity="0.4" d="M2.4 7.20002C3.2825 7.20002 4 6.48252 4 5.60002C4 4.71752 3.2825 4.00002 2.4 4.00002C1.5175 4.00002 0.8 4.71752 0.8 5.60002C0.8 6.48252 1.5175 7.20002 2.4 7.20002ZM13.6 7.20002C14.4825 7.20002 15.2 6.48252 15.2 5.60002C15.2 4.71752 14.4825 4.00002 13.6 4.00002C12.7175 4.00002 12 4.71752 12 5.60002C12 6.48252 12.7175 7.20002 13.6 7.20002ZM14.4 8.00002H12.8C12.36 8.00002 11.9625 8.17753 11.6725 8.46502C12.68 9.01753 13.395 10.015 13.55 11.2H15.2C15.6425 11.2 16 10.8425 16 10.4V9.60003C16 8.71753 15.2825 8.00002 14.4 8.00002ZM8 8.00002C9.5475 8.00002 10.8 6.74752 10.8 5.20002C10.8 3.65252 9.5475 2.40002 8 2.40002C6.4525 2.40002 5.2 3.65252 5.2 5.20002C5.2 6.74752 6.4525 8.00002 8 8.00002ZM9.92 8.80002H9.7125C9.1925 9.05002 8.615 9.20003 8 9.20003C7.385 9.20003 6.81 9.05002 6.2875 8.80002H6.08C4.49 8.80002 3.2 10.09 3.2 11.68V12.4C3.2 13.0625 3.7375 13.6 4.4 13.6H11.6C12.2625 13.6 12.8 13.0625 12.8 12.4V11.68C12.8 10.09 11.51 8.80002 9.92 8.80002ZM4.3275 8.46502C4.0375 8.17753 3.64 8.00002 3.2 8.00002H1.6C0.7175 8.00002 0 8.71753 0 9.60003V10.4C0 10.8425 0.3575 11.2 0.8 11.2H2.4475C2.605 10.015 3.32 9.01753 4.3275 8.46502Z" fill="#9FA2B4"/>
</svg>
