<svg width="36" height="36" viewBox="0 0 36 36" fill="none" xmlns="http://www.w3.org/2000/svg">
<path d="M31.7277 15.2581H30.6V15.2H18V20.8H25.9121C24.7578 24.0599 21.6561 26.4 18 26.4C13.3611 26.4 9.6 22.6389 9.6 18C9.6 13.3611 13.3611 9.6 18 9.6C20.1413 9.6 22.0894 10.4078 23.5727 11.7273L27.5326 7.7674C25.0322 5.4371 21.6876 4 18 4C10.2685 4 4 10.2685 4 18C4 25.7315 10.2685 32 18 32C25.7315 32 32 25.7315 32 18C32 17.0613 31.9034 16.145 31.7277 15.2581Z" fill="#FFC107"/>
<path d="M5.61328 11.4837L10.213 14.857C11.4576 11.7756 14.4718 9.6 17.9991 9.6C20.1404 9.6 22.0885 10.4078 23.5718 11.7273L27.5317 7.7674C25.0313 5.4371 21.6867 4 17.9991 4C12.6217 4 7.95828 7.0359 5.61328 11.4837Z" fill="#FF3D00"/>
<path d="M18.0026 32C21.6188 32 24.9046 30.6161 27.3889 28.3656L23.0559 24.699C21.6503 25.7637 19.9031 26.4 18.0026 26.4C14.3612 26.4 11.2693 24.0781 10.1045 20.8378L5.53906 24.3553C7.85606 28.8892 12.5615 32 18.0026 32Z" fill="#4CAF50"/>
<path d="M31.7277 15.2579H30.6V15.1998H18V20.7998H25.9121C25.3577 22.3657 24.3504 23.716 23.0512 24.6995C23.0519 24.6988 23.0526 24.6988 23.0533 24.6981L27.3863 28.3647C27.0797 28.6433 32 24.9998 32 17.9998C32 17.0611 31.9034 16.1448 31.7277 15.2579Z" fill="#1976D2"/>
</svg>
