<svg width="36" height="36" viewBox="0 0 36 36" fill="none" xmlns="http://www.w3.org/2000/svg">
<path d="M18 3C14.0218 3 10.2064 4.58035 7.3934 7.3934C4.58035 10.2064 3 14.0218 3 18C3 21.9782 4.58035 25.7936 7.3934 28.6066C10.2064 31.4196 14.0218 33 18 33C21.9782 33 25.7936 31.4196 28.6066 28.6066C31.4196 25.7936 33 21.9782 33 18C33 14.0218 31.4196 10.2064 28.6066 7.3934C25.7936 4.58035 21.9782 3 18 3Z" fill="#005FF9"/>
<path d="M20.7071 18C20.7071 19.4927 19.4927 20.7071 18 20.7071C16.5073 20.7071 15.2929 19.4927 15.2929 18C15.2929 16.5073 16.5073 15.2929 18 15.2929C19.4927 15.2929 20.7071 16.5073 20.7071 18ZM18 9C13.0371 9 9 13.0371 9 18C9 22.9629 13.0371 27 18 27C19.818 27 21.5711 26.4587 23.0696 25.4346L23.0953 25.4166L21.8829 24.0075L21.8623 24.0204C20.709 24.7629 19.3731 25.155 18 25.155C14.0548 25.155 10.845 21.9452 10.845 18C10.845 14.0548 14.0548 10.845 18 10.845C21.9452 10.845 25.155 14.0548 25.155 18C25.155 18.5111 25.0978 19.0286 24.9866 19.5377C24.7603 20.4666 24.1097 20.7508 23.6218 20.7135C23.1306 20.6736 22.5559 20.3239 22.5521 19.4676V18.8151V18C22.5521 15.4896 20.5104 13.4479 18 13.4479C15.4896 13.4479 13.4479 15.4896 13.4479 18C13.4479 20.5104 15.4896 22.5521 18 22.5521C19.2195 22.5521 20.3631 22.0757 21.2252 21.2085C21.7266 21.9889 22.5437 22.4781 23.4739 22.5527C23.5536 22.5591 23.6353 22.5624 23.7156 22.5624C24.3707 22.5624 25.0194 22.3431 25.5426 21.9465C26.082 21.5364 26.4851 20.9443 26.7075 20.2326C26.7429 20.1176 26.8084 19.8546 26.8084 19.8527L26.8104 19.8431C26.9415 19.2722 27 18.7033 27 18C27 13.0371 22.9629 9 18 9Z" fill="#FF9E00"/>
</svg>
