<svg width="36" height="36" viewBox="0 0 36 36" fill="none" xmlns="http://www.w3.org/2000/svg">
<path d="M18 3C14.0218 3 10.2064 4.58035 7.3934 7.3934C4.58035 10.2064 3 14.0218 3 18C3 21.9782 4.58035 25.7936 7.3934 28.6066C10.2064 31.4196 14.0218 33 18 33C21.9782 33 25.7936 31.4196 28.6066 28.6066C31.4196 25.7936 33 21.9782 33 18C33 14.0218 31.4196 10.2064 28.6066 7.3934C25.7936 4.58035 21.9782 3 18 3Z" fill="#FC3F1D"/>
<path d="M22 25.0413H19.3719V12.0331H18.1983C16.0496 12.0331 14.9256 13.1074 14.9256 14.7107C14.9256 16.5289 15.7025 17.3719 17.3058 18.4463L18.6281 19.3388L14.8264 25.0413H12L15.4215 19.9504C13.4545 18.5455 12.3471 17.1736 12.3471 14.8595C12.3471 11.9669 14.3636 10 18.1818 10H21.9835L22 25.0413Z" fill="white"/>
</svg>
