<svg width="16" height="16" viewBox="0 0 16 16" fill="none" xmlns="http://www.w3.org/2000/svg">
<path opacity="0.4" d="M15.2313 9.86558L13.9 9.09683C14.0344 8.37183 14.0344 7.62808 13.9 6.90308L15.2313 6.13433C15.3844 6.04683 15.4531 5.86558 15.4031 5.69683C15.0563 4.58433 14.4656 3.57808 13.6938 2.74058C13.575 2.61246 13.3813 2.58121 13.2313 2.66871L11.9 3.43746C11.3406 2.95621 10.6969 2.58433 10 2.34058V0.806206C10 0.631206 9.87814 0.478081 9.70627 0.440581C8.55939 0.184331 7.38439 0.196831 6.29377 0.440581C6.12189 0.478081 6.00002 0.631206 6.00002 0.806206V2.34371C5.30627 2.59058 4.66252 2.96246 4.10002 3.44058L2.77189 2.67183C2.61877 2.58433 2.42814 2.61246 2.30939 2.74371C1.53752 3.57808 0.946895 4.58433 0.60002 5.69996C0.546895 5.86871 0.61877 6.04996 0.771895 6.13746L2.10314 6.90621C1.96877 7.63121 1.96877 8.37496 2.10314 9.09996L0.771895 9.86871C0.61877 9.95621 0.55002 10.1375 0.60002 10.3062C0.946895 11.4187 1.53752 12.425 2.30939 13.2625C2.42814 13.3906 2.62189 13.4218 2.77189 13.3343L4.10314 12.5656C4.66252 13.0468 5.30627 13.4187 6.00314 13.6625V15.2C6.00314 15.375 6.12502 15.5281 6.29689 15.5656C7.44377 15.8218 8.61877 15.8093 9.70939 15.5656C9.88127 15.5281 10.0031 15.375 10.0031 15.2V13.6625C10.6969 13.4156 11.3406 13.0437 11.9031 12.5656L13.2344 13.3343C13.3875 13.4218 13.5781 13.3937 13.6969 13.2625C14.4688 12.4281 15.0594 11.4218 15.4063 10.3062C15.4531 10.1343 15.3844 9.95308 15.2313 9.86558ZM8.00002 10.5C6.62189 10.5 5.50002 9.37808 5.50002 7.99996C5.50002 6.62183 6.62189 5.49996 8.00002 5.49996C9.37814 5.49996 10.5 6.62183 10.5 7.99996C10.5 9.37808 9.37814 10.5 8.00002 10.5Z" fill="#9FA2B4"/>
</svg>
