<svg width="120" height="23" viewBox="0 0 120 23" fill="none" xmlns="http://www.w3.org/2000/svg">
<path d="M11.2018 9.33953H16.1678C17.1836 9.37715 17.8044 9.6405 18.0301 10.1296C18.2182 10.487 18.3123 11.0137 18.3123 11.7097V17.9172C18.3123 18.5192 18.0489 19.0929 17.5222 19.6384C15.9421 21.2749 13.5719 22.0932 10.4117 22.0932C7.60894 22.0932 5.17295 21.0398 3.10377 18.933C1.03459 16.8074 0 14.2491 0 11.2582C0 8.26732 1.0534 5.7749 3.1602 3.78096C5.26701 1.76821 7.75002 0.761835 10.6093 0.761835C12.8289 0.761835 14.9263 1.49545 16.9014 2.96269C17.4093 3.33891 17.6633 3.76215 17.6633 4.23242C17.6633 4.68387 17.447 5.21057 17.0143 5.81252C16.2807 6.80949 15.6129 7.30797 15.011 7.30797C14.6536 7.30797 14.0798 7.05403 13.2898 6.54614C12.4997 6.01944 11.5592 5.75609 10.4682 5.75609C9.03856 5.75609 7.76883 6.26398 6.659 7.27976C5.54917 8.27672 4.99425 9.59348 4.99425 11.23C4.99425 12.8477 5.55857 14.2303 6.68722 15.3778C7.81586 16.5064 9.09499 17.0707 10.5246 17.0707C11.5592 17.0707 12.4903 16.9014 13.318 16.5629V13.4873H11.0889C10.5058 13.4873 10.092 13.4121 9.84742 13.2616C9.60288 13.1111 9.44299 12.8948 9.36775 12.6126C9.2925 12.3116 9.25488 11.9166 9.25488 11.4275C9.25488 10.9196 9.2925 10.5152 9.36775 10.2142C9.4618 9.91326 9.62169 9.70634 9.84742 9.59348C10.186 9.42418 10.6375 9.33953 11.2018 9.33953Z" fill="#446DF6"/>
<path d="M34.8996 12.6126C34.8996 13.7601 34.608 14.6159 34.0249 15.1803C33.4605 15.7258 32.8304 15.9985 32.1344 15.9985H25.4472C25.4472 16.5252 25.7576 16.9673 26.3783 17.3247C26.9991 17.6821 27.6198 17.8608 28.2406 17.8608C29.3316 17.8608 30.1875 17.7479 30.8082 17.5222L31.1186 17.4093C31.5701 17.2024 31.9463 17.099 32.2473 17.099C32.8492 17.099 33.3665 17.5222 33.7991 18.3687C34.0437 18.8766 34.166 19.3092 34.166 19.6666C34.166 21.3408 32.1626 22.1779 28.1559 22.1779C26.7639 22.1779 25.5224 21.9427 24.4314 21.4725C23.3592 20.9834 22.5221 20.3438 21.9202 19.5538C20.7351 18.0301 20.1425 16.3277 20.1425 14.4466C20.1425 12.0765 20.9044 10.186 22.4281 8.77521C23.9705 7.34559 25.8892 6.63078 28.1841 6.63078C30.7988 6.63078 32.7175 7.55251 33.9402 9.39596C34.5798 10.3741 34.8996 11.4463 34.8996 12.6126ZM28.946 13.4309C29.6608 13.4309 30.0182 13.1299 30.0182 12.528C30.0182 12.0953 29.8489 11.7473 29.5103 11.484C29.1905 11.2206 28.7202 11.0889 28.0995 11.0889C27.4975 11.0889 26.8956 11.3429 26.2937 11.8508C25.6917 12.3398 25.3907 12.8665 25.3907 13.4309H28.946Z" fill="#446DF6"/>
<path d="M45.099 11.9354L43.265 11.8225V15.7164C43.265 16.2243 43.3402 16.5911 43.4907 16.8168C43.66 17.0425 43.961 17.1554 44.3936 17.1554C44.8451 17.1554 45.1837 17.1742 45.4094 17.2118C45.6539 17.2306 45.9079 17.3153 46.1712 17.4658C46.6039 17.7103 46.8202 18.3405 46.8202 19.3562C46.8202 20.5413 46.5569 21.2655 46.0302 21.5289C45.748 21.6606 45.4941 21.7452 45.2683 21.7828C45.0614 21.8016 44.751 21.811 44.3372 21.811C42.3809 21.811 40.8948 21.369 39.8791 20.4849C38.8633 19.6008 38.3554 18.1053 38.3554 15.9985V11.8225C37.998 11.879 37.6124 11.9072 37.1985 11.9072C36.7847 11.9072 36.4367 11.7473 36.1545 11.4275C35.8912 11.1077 35.7595 10.5622 35.7595 9.79099C35.7595 9.01975 35.8065 8.46483 35.9006 8.12624C35.9946 7.76884 36.1263 7.51489 36.2956 7.3644C36.5966 7.11986 36.9728 6.99759 37.4243 6.99759L38.3554 7.11046V4.2042C38.3554 3.77155 38.3648 3.45177 38.3836 3.24485C38.4212 3.03793 38.5153 2.81221 38.6658 2.56767C38.9103 2.0974 39.6345 1.86226 40.8384 1.86226C42.1175 1.86226 42.8794 2.21026 43.1239 2.90626C43.218 3.20723 43.265 3.68691 43.265 4.34528V7.11046C44.0927 7.03522 44.7134 6.99759 45.1272 6.99759C45.5599 6.99759 45.8797 7.01641 46.0866 7.05403C46.3123 7.07284 46.5663 7.15749 46.8484 7.30797C47.3375 7.55251 47.582 8.27672 47.582 9.48061C47.582 10.6657 47.3281 11.3899 46.8202 11.6533C46.538 11.7849 46.2841 11.8696 46.0584 11.9072C45.8515 11.926 45.5317 11.9354 45.099 11.9354Z" fill="#446DF6"/>
<path d="M73.1141 1.24151C74.3744 1.69297 75.0046 2.29491 75.0046 3.04734C75.0046 3.29188 74.8917 3.75274 74.666 4.42993L69.2485 20.0899C69.2109 20.2215 69.145 20.3814 69.051 20.5695C68.9569 20.7576 68.703 21.0116 68.2891 21.3314C67.8941 21.6323 67.4144 21.7828 66.8501 21.7828C66.3046 21.7828 65.8249 21.6323 65.4111 21.3314C65.0161 21.0116 64.7527 20.7012 64.621 20.4002L61.3198 10.6657C59.2318 16.8356 58.169 19.977 58.1313 20.0899C58.0937 20.2027 58.0091 20.3626 57.8774 20.5695C57.7457 20.7765 57.5952 20.9646 57.4259 21.1339C56.9933 21.5665 56.476 21.7828 55.8741 21.7828C55.2721 21.7828 54.7736 21.6418 54.3786 21.3596C54.0024 21.0774 53.7484 20.7953 53.6168 20.5131L53.4193 20.0899L47.9735 4.42993C47.7666 3.80917 47.6632 3.34831 47.6632 3.04734C47.6632 2.29491 48.2933 1.70237 49.5536 1.26973C50.0992 1.08162 50.5882 0.987565 51.0209 0.987565C51.4723 0.987565 51.8109 1.13805 52.0367 1.43902C52.2812 1.73999 52.4975 2.20086 52.6856 2.82161L55.7894 12.2458L58.865 2.96269C59.1283 2.17264 59.608 1.62713 60.304 1.32616C60.605 1.19448 60.9906 1.12865 61.4608 1.12865C61.9499 1.12865 62.4014 1.28854 62.8152 1.60832C63.229 1.90929 63.4924 2.21026 63.6053 2.51123L66.8501 12.3022L69.9539 2.82161C70.1044 2.38896 70.2266 2.06918 70.3207 1.86226C70.4148 1.65535 70.584 1.45783 70.8286 1.26973C71.0919 1.06281 71.4117 0.959349 71.7879 0.959349C72.1641 0.959349 72.6062 1.0534 73.1141 1.24151Z" fill="#446DF6"/>
<path d="M84.2231 8.52127C84.3359 7.46786 85.079 6.94116 86.4521 6.94116C87.1858 6.94116 87.7313 6.99759 88.0887 7.11046C88.4461 7.22332 88.6906 7.42084 88.8223 7.703C88.9728 7.98516 89.0574 8.2391 89.0762 8.46483C89.1139 8.67175 89.1327 8.99153 89.1327 9.42418V19.2998C89.1327 19.7325 89.1139 20.0617 89.0762 20.2874C89.0574 20.4943 88.9822 20.7388 88.8505 21.021C88.5872 21.5101 87.9382 21.7546 86.9036 21.7546C85.8878 21.7546 85.2012 21.6323 84.8438 21.3878C84.5052 21.1245 84.3077 20.7482 84.2513 20.2592C83.5553 21.2561 82.389 21.7546 80.7525 21.7546C79.1348 21.7546 77.6299 21.0116 76.2379 19.5255C74.8459 18.0395 74.1499 16.3183 74.1499 14.362C74.1499 12.3869 74.8459 10.6657 76.2379 9.19845C77.6487 7.7124 79.1912 6.96938 80.8654 6.96938C81.5049 6.96938 82.0881 7.08224 82.6148 7.30797C83.1415 7.5337 83.5083 7.75002 83.7152 7.95694C83.9221 8.14505 84.0914 8.33316 84.2231 8.52127ZM79.0877 14.3902C79.0877 15.011 79.3323 15.5753 79.8214 16.0832C80.3104 16.5723 80.903 16.8168 81.599 16.8168C82.295 16.8168 82.8687 16.5629 83.3202 16.055C83.7904 15.5471 84.0256 14.9922 84.0256 14.3902C84.0256 13.7695 83.7998 13.1957 83.3484 12.669C82.9157 12.1423 82.3232 11.879 81.5708 11.879C80.8371 11.879 80.2352 12.1423 79.7649 12.669C79.3135 13.1957 79.0877 13.7695 79.0877 14.3902Z" fill="#446DF6"/>
<path d="M91.4945 20.4849C91.1371 20.2592 90.9584 19.9018 90.9584 19.4127C90.9584 18.9236 91.3158 18.1806 92.0306 17.1836C92.2375 16.8638 92.5667 16.7039 93.0181 16.7039C93.4884 16.7039 94.1186 16.9391 94.9086 17.4093C95.6987 17.8608 96.4135 18.0865 97.053 18.0865C98.2005 18.0865 98.7742 17.8608 98.7742 17.4093C98.7742 17.0519 98.1441 16.7886 96.8837 16.6193C95.6987 16.45 94.523 16.0079 93.3567 15.2931C92.8112 14.9545 92.3597 14.4278 92.0023 13.713C91.6449 12.9794 91.4662 12.1141 91.4662 11.1171C91.4662 8.14505 93.5072 6.659 97.5891 6.659C98.9247 6.659 100.298 6.97878 101.709 7.61835C102.367 7.91932 102.696 8.29554 102.696 8.74699C102.696 9.19845 102.489 9.75337 102.076 10.4117C101.662 11.0701 101.238 11.3993 100.806 11.3993C100.58 11.3993 100.157 11.2582 99.536 10.9761C98.9341 10.6939 98.2757 10.5528 97.5609 10.5528C96.4511 10.5528 95.8962 10.7597 95.8962 11.1736C95.8962 11.7379 96.5357 12.1047 97.8149 12.274C99.0564 12.4057 100.26 12.7631 101.427 13.3462C101.972 13.6096 102.423 14.0704 102.781 14.7288C103.157 15.3684 103.345 16.1772 103.345 17.1554C103.345 18.1336 103.157 18.9706 102.781 19.6666C102.423 20.3438 101.916 20.8517 101.257 21.1903C100.053 21.7734 98.5391 22.065 96.7144 22.065C94.9086 22.065 93.1686 21.5383 91.4945 20.4849Z" fill="#446DF6"/>
<path d="M113.426 6.99759C115.307 6.99759 116.868 7.7124 118.11 9.14202C119.37 10.5716 120 12.321 120 14.3902V19.3562C120 19.7889 119.981 20.1181 119.944 20.3438C119.925 20.5507 119.84 20.7953 119.69 21.0774C119.445 21.5665 118.721 21.811 117.517 21.811C116.37 21.811 115.655 21.5665 115.373 21.0774C115.222 20.7953 115.128 20.5413 115.09 20.3156C115.072 20.0899 115.062 19.7513 115.062 19.2998V14.362C115.062 13.5908 114.846 12.9888 114.413 12.5562C113.981 12.1235 113.426 11.9072 112.748 11.9072C112.09 11.9072 111.507 12.1141 110.999 12.528C110.491 12.923 110.2 13.3744 110.124 13.8823V19.3562C110.124 19.7889 110.106 20.1181 110.068 20.3438C110.049 20.5507 109.964 20.7953 109.814 21.0774C109.569 21.5665 108.845 21.811 107.641 21.811C106.456 21.811 105.732 21.5571 105.469 21.0492C105.337 20.7671 105.252 20.5225 105.215 20.3156C105.196 20.1087 105.187 19.7795 105.187 19.328V2.4548C105.187 2.02216 105.196 1.70237 105.215 1.49545C105.252 1.26973 105.337 1.02519 105.469 0.761835C105.732 0.253945 106.466 0 107.67 0C108.855 0 109.569 0.253945 109.814 0.761835C109.964 1.044 110.049 1.29794 110.068 1.52367C110.106 1.73059 110.124 2.05037 110.124 2.48302V8.71878C111.065 7.57132 112.165 6.99759 113.426 6.99759Z" fill="#446DF6"/>
</svg>
